<svg xmlns="http://www.w3.org/2000/svg" xmlns:xlink="http://www.w3.org/1999/xlink" fill="none" version="1.1" width="30" height="30" viewBox="0 0 48 48"><defs><filter id="master_svg0_0_3363" filterUnits="objectBoundingBox" color-interpolation-filters="sRGB" x="-0.4" y="-0.3333333333333333" width="1.8" height="1.8"><feFlood flood-opacity="0" result="BackgroundImageFix"/><feColorMatrix in="SourceAlpha" type="matrix" values="0 0 0 0 0 0 0 0 0 0 0 0 0 0 0 0 0 0 127 0"/><feOffset dy="2" dx="0"/><feGaussianBlur stdDeviation="3"/><feColorMatrix type="matrix" values="0 0 0 0 0.839786946773529 0 0 0 0 0.8612616658210754 0 0 0 0 0.8827364444732666 0 0 0 0.7325727343559265 0"/><feBlend mode="normal" in2="BackgroundImageFix" result="effect1_dropShadow"/><feBlend mode="normal" in="SourceGraphic" in2="effect1_dropShadow" result="shape"/></filter></defs><path d="M7 43C7 40.79086100067683 8.790861000676827 39 11 39L33 39C35.20913899932317 39 37 40.79086100067683 37 43L37 65C37 67.20913899932317 35.20913899932317 69 33 69L11 69C8.790861000676827 69 7 67.20913899932317 7 65Z" fill="#FFFFFF" fill-opacity="1" transform="matrix(0,-1,1,0,-32,46)" filter="url(#master_svg0_0_3363)"/><g transform="matrix(0,-1,1,0,-8.5,47.5)"><path d="M23.5,29.4142134L26.7928934,32.7071066Q26.8625374,32.7767506,26.9444294,32.8314691Q27.0263214,32.886188,27.1173153,32.9238791Q27.2083097,32.9615698,27.3049088,32.9807844Q27.4015074,32.999999,27.4999995,32.9999995Q27.5984907,32.999999,27.6950903,32.9807844Q27.7916889,32.9615698,27.882682799999998,32.9238791Q27.9736767,32.886188,28.0555706,32.8314691Q28.1374626,32.7767506,28.2071066,32.7071066Q28.2767506,32.6374626,28.3314686,32.5555696Q28.3861876,32.4736767,28.4238787,32.3826828Q28.4615698,32.2916884,28.480785400000002,32.1950893Q28.5,32.0984907,28.5,31.9999995Q28.5,31.9015079,28.480785400000002,31.804909Q28.4615698,31.7083101,28.4238787,31.617316Q28.3861876,31.5263219,28.3314686,31.4444294Q28.2767506,31.3625369,28.2071066,31.2928932L24.2071066,27.29289323Q24.066454399999998,27.15224099,23.8826833,27.076120500000002Q23.6989126,27.00000012,23.5,27.00000006Q23.3010876,27.00000012,23.1173165,27.07612056Q22.9335456,27.15224099,22.7928932,27.29289323L18.79289323,31.2928932Q18.65224099,31.4335456,18.57612056,31.6173165Q18.50000012,31.8010874,18.50000006,31.9999995Q18.5,32.1989117,18.57612044,32.3826828Q18.65224087,32.5664539,18.79289323,32.7071066Q18.86253721,32.7767506,18.94442981,32.8314691Q19.02632242,32.886188,19.1173166,32.9238791Q19.20831078,32.9615698,19.30490969,32.9807844Q19.4015086,32.999999,19.5,32.9999995Q19.5984914,32.999999,19.69509031,32.9807844Q19.79168922,32.9615698,19.8826834,32.9238791Q19.97367758,32.886188,20.05557019,32.8314691Q20.13746279,32.7767506,20.20710677,32.7071066L23.5,29.4142134Z" fill-rule="evenodd" fill="#191C1E" fill-opacity="1"/></g></svg>