<svg xmlns="http://www.w3.org/2000/svg" xmlns:xlink="http://www.w3.org/1999/xlink" fill="none" version="1.1" width="16" height="16" viewBox="0 0 16 16"><defs><clipPath id="master_svg0_0_3357"><rect x="-0.20000000298023224" y="-0.20000000298023224" width="16.400000005960464" height="16.400000005960464" rx="0"/></clipPath></defs><g clip-path="url(#master_svg0_0_3357)"><path d="M14.213078153160096,7.476937641681671C13.971766153160095,4.509031341681672,11.602687253160095,2.085546941681671,8.640343553160095,1.7835000116816713C7.080890553160096,1.6245000316816711,5.624546853160095,2.0409062416816712,4.454390653160095,2.844234441681671L4.742937453160096,1.7685781716816713C4.832390653160095,1.4351875216816712,4.634609353160095,1.0924219016816712,4.301218653160095,1.0029843966816712C3.967828153160095,0.9135468976816712,3.625062453160095,1.1113281416816712,3.535624953160095,1.4447187816816711L2.887890553160095,3.859343841681671C2.7984530531600953,4.192734341681671,2.996218653160095,4.535484341681672,3.329625053160095,4.6249376416816705L5.744250153160095,5.2726720416816715C6.077640453160095,5.362109441681671,6.4203904531600955,5.164327941681671,6.509843753160095,4.830937441681671C6.599281153160095,4.497546941681671,6.401500153160095,4.154781141681671,6.068109353160096,4.065343641681672L5.221328153160095,3.838187541681671C6.141906153160095,3.224109441681671,7.2753437531600955,2.905593841681671,8.486937453160095,3.024734341681671C10.797640253160095,3.251968641681671,12.679547153160096,5.094437441681671,12.949266153160096,7.400562541681671C13.308953153160095,10.475874741681672,10.857406053160096,13.087640141681671,7.832859353160095,12.997735141681671C5.721812353160095,12.934969141681671,3.8800467531600953,11.496000141681671,3.2244530531600955,9.488327841681672C2.950812453160095,8.65032794168167,2.9288281531600955,7.847281241681671,3.0694531531600955,7.100062641681671C3.119265553160095,6.835281241681671,3.003234353160095,6.567468941681671,2.7698905531600952,6.4327657416816715L2.7691249531600954,6.4323280416816715C2.3982343031600952,6.218187641681671,1.9197812031600952,6.429765541681671,1.8409374531600953,6.850718841681672C1.7202499541600953,7.494984441681671,1.6983124541600951,8.173937641681672,1.7946093271600951,8.872640441681671C2.1941562031600954,11.771625141681671,4.623203153160095,14.034140141681672,7.542703053160095,14.234766141681671C11.369624453160096,14.497765141681672,14.525000153160095,11.31326514168167,14.213078153160096,7.476937641681671Z" fill="#FFFFFF" fill-opacity="1"/><path d="M3.587280353160095,12.71186514168167Q5.267881253160095,14.278914141681671,7.528990653160095,14.434295141681671Q10.492603653160096,14.637966141681671,12.572210153160094,12.533684141681672Q14.653645153160095,10.427553941681671,14.412420153160095,7.460730341681671Q14.225532153160096,5.162191241681671,12.590053153160095,3.4906504416816713Q10.953830153160094,1.8183509116816712,8.660631553160094,1.584531421681671Q6.5525907531600955,1.3695982416816712,4.780334853160095,2.401094241681671L4.936107953160095,1.8203965416816712Q5.024664553160095,1.4903488116816712,4.853877653160096,1.194347141681671Q4.6830981531600955,0.8983581956816712,4.353039653160096,0.8098146516816711Q4.022982453160095,0.7212712416816711,3.7269858531600955,0.8920591096816711Q3.4309979531600954,1.0628419216816711,3.342454653160095,1.3928975716816712L2.694720213160095,3.807525241681671Q2.606177273160095,4.137581141681672,2.776959053160095,4.433570241681672Q2.947735653160095,4.729549941681672,3.277798053160095,4.818106041681672L5.692431553160095,5.465842541681671Q6.022486053160095,5.554385441681671,6.318478453160095,5.383597241681671Q6.614454653160095,5.212818441681671,6.703011353160095,4.882767541681671Q6.791556753160095,4.552701041681671,6.620769353160095,4.256705141681671Q6.449986353160095,3.9607167416816713,6.119930653160095,3.872173841681671L5.725822353160096,3.7664511416816713Q6.988727953160096,3.078374441681671,8.467365153160095,3.223774541681671Q10.130870253160095,3.387363541681671,11.343474753160095,4.575896541681671Q12.556606153160095,5.764945341681671,12.750621153160095,7.423796041681671Q13.008482153160095,9.628510341681672,11.513105753160096,11.250541141681671Q10.026684153160096,12.862859141681671,7.838802653160095,12.797824141681671Q6.328893053160095,12.752931141681671,5.104598353160095,11.813690141681672Q3.8898731531600954,10.88178994168167,3.414573953160095,9.426245541681672Q3.047017953160095,8.300640441681672,3.266002653160095,7.137053341681671Q3.376106953160095,6.551786241681671,2.8698805531600953,6.259555641681671L2.868427253160095,6.258722141681671Q2.5018088231600952,6.047046941681671,2.113766703160095,6.220832641681671Q1.7226265021600953,6.3960064416816715,1.6443557741600952,6.813899841681671Q1.4511366831600951,7.845360541681671,1.5964822031600951,8.899946941681671Q1.9057584431600951,11.143957141681671,3.587280353160095,12.71186514168167ZM12.287705153160095,12.252515141681672Q10.337032653160096,14.226331141681671,7.556415953160095,14.035237141681671Q5.436879953160095,13.889584141681672,3.8600670531600954,12.419311141681671Q2.2825899131600953,10.948418441681671,1.992736523160095,8.845334841681671Q1.8562642531600952,7.855130541681671,2.037519033160095,6.887538741681671Q2.0772382031600953,6.675474941681671,2.2772606631600953,6.585894441681671Q2.4787888531600952,6.4956391416816714,2.6698226931600955,6.605933941681672L2.669900653160095,6.605976841681671Q2.930585053160095,6.756462841681671,2.872903753160095,7.063072541681671Q2.6349636931600955,8.32737954168167,3.0343332531600953,9.550412041681671Q3.548093153160095,11.123736141681672,4.861125153160096,12.13105514168167Q6.187900453160095,13.148915141681671,7.826918053160095,13.19764714168167Q10.197133453160095,13.268102141681672,11.807197153160095,11.521670141681671Q13.427120153160095,9.76454434168167,13.147913153160095,7.3773301416816714Q12.937487153160095,5.578167741681671,11.623466853160096,4.290232741681671Q10.310239153160095,3.003073041681671,8.506510153160095,2.8256945416816714Q6.6521319531600955,2.643346341681671,5.110343353160095,3.6718075416816713L4.742896653160095,3.916915741681671L6.016288653160095,4.258513741681671Q6.221556553160095,4.313580141681671,6.296649353160095,4.443745241681671Q6.371729753160095,4.573889541681671,6.316676453160095,4.779108541681671Q6.2065318531600955,5.189615041681671,5.796069453160095,5.079501941681671L3.381452153160095,4.4317696416816705Q2.9709463531600955,4.3216307416816715,3.0810611531600953,3.9111629416816713L3.728794353160095,1.496539891681671Q3.838919053160095,1.0860365216816712,4.2493978531600956,1.196154351681671Q4.419432953160095,1.241768981681671,4.507411553160095,1.3942506616816712Q4.595388253160095,1.546729211681671,4.549767153160095,1.716759861681671L4.120812053160096,3.3158350416816713L4.567587253160095,3.0091186416816713Q6.393692853160095,1.755471111681671,8.620057453160095,1.9824681416816712Q10.769194053160096,2.2015987416816714,12.304143153160096,3.770392441681671Q13.838560153160095,5.338640941681671,14.013736153160096,7.493146241681671Q14.240082153160095,10.276971641681671,12.287705153160095,12.252515141681672Z" fill-rule="evenodd" fill="#FFFFFF" fill-opacity="1"/></g></svg>