<svg xmlns="http://www.w3.org/2000/svg" xmlns:xlink="http://www.w3.org/1999/xlink" fill="none" version="1.1" width="30" height="30" viewBox="0 0 48 48"><defs><filter id="master_svg0_0_3366" filterUnits="objectBoundingBox" color-interpolation-filters="sRGB" x="-0.4" y="-0.3333333333333333" width="1.8" height="1.8"><feFlood flood-opacity="0" result="BackgroundImageFix"/><feColorMatrix in="SourceAlpha" type="matrix" values="0 0 0 0 0 0 0 0 0 0 0 0 0 0 0 0 0 0 127 0"/><feOffset dy="2" dx="0"/><feGaussianBlur stdDeviation="3"/><feColorMatrix type="matrix" values="0 0 0 0 0.839786946773529 0 0 0 0 0.8612616658210754 0 0 0 0 0.8827364444732666 0 0 0 0.7325727343559265 0"/><feBlend mode="normal" in2="BackgroundImageFix" result="effect1_dropShadow"/><feBlend mode="normal" in="SourceGraphic" in2="effect1_dropShadow" result="shape"/></filter></defs><path d="M39 45C39 42.79086100067683 40.79086100067683 41 43 41L65 41C67.20913899932317 41 69 42.79086100067683 69 45L69 67C69 69.20913899932317 67.20913899932317 71 65 71L43 71C40.79086100067683 71 39 69.20913899932317 39 67Z" fill="#FFFFFF" fill-opacity="1" transform="matrix(-1,0,0,-1,78,82)" filter="url(#master_svg0_0_3366)"/><g transform="matrix(-1,0,0,-1,56,57)"><path d="M32,29.9142134L35.2928934,33.2071066Q35.3625374,33.2767506,35.4444294,33.3314691Q35.5263214,33.386188,35.6173153,33.4238791Q35.7083097,33.4615698,35.8049088,33.4807844Q35.9015074,33.499999,35.9999995,33.4999995Q36.0984907,33.499999,36.195090300000004,33.4807844Q36.2916889,33.4615698,36.3826828,33.4238791Q36.4736767,33.386188,36.555570599999996,33.3314691Q36.6374626,33.2767506,36.7071066,33.2071066Q36.7767506,33.1374626,36.8314686,33.0555696Q36.8861876,32.9736767,36.9238787,32.8826828Q36.9615698,32.7916884,36.9807854,32.6950893Q37,32.5984907,37,32.4999995Q37,32.4015079,36.9807854,32.304909Q36.9615698,32.2083101,36.9238787,32.117316Q36.8861876,32.0263219,36.8314686,31.9444294Q36.7767506,31.8625369,36.7071066,31.7928932L32.7071066,27.79289323Q32.5664544,27.65224099,32.3826833,27.576120500000002Q32.1989126,27.50000012,32,27.50000006Q31.8010876,27.50000012,31.6173165,27.57612056Q31.4335456,27.65224099,31.2928932,27.79289323L27.29289323,31.7928932Q27.15224099,31.9335456,27.07612056,32.1173165Q27.00000012,32.3010874,27.00000006,32.4999995Q27,32.6989117,27.07612044,32.8826828Q27.15224087,33.0664539,27.29289323,33.2071066Q27.36253721,33.2767506,27.44442981,33.3314691Q27.52632242,33.386188,27.6173166,33.4238791Q27.70831078,33.4615698,27.80490969,33.4807844Q27.9015086,33.499999,28,33.4999995Q28.0984914,33.499999,28.19509031,33.4807844Q28.29168922,33.4615698,28.3826834,33.4238791Q28.47367758,33.386188,28.55557019,33.3314691Q28.63746279,33.2767506,28.70710677,33.2071066L32,29.9142134Z" fill-rule="evenodd" fill="#191C1E" fill-opacity="1"/></g></svg>