<svg xmlns="http://www.w3.org/2000/svg" xmlns:xlink="http://www.w3.org/1999/xlink" fill="none" version="1.1" width="40" height="40" viewBox="0 0 40 40"><defs><filter id="master_svg0_49_08883" filterUnits="objectBoundingBox" color-interpolation-filters="sRGB" x="0" y="0" width="1" height="1"><feFlood flood-opacity="0" result="BackgroundImageFix"/><feBlend mode="normal" in="SourceGraphic" in2="BackgroundImageFix" result="shape"/><feColorMatrix in="SourceAlpha" type="matrix" result="hardAlpha" values="0 0 0 0 0 0 0 0 0 0 0 0 0 0 0 0 0 0 127 0"/><feOffset dy="1" dx="1"/><feGaussianBlur stdDeviation="0.5"/><feComposite in2="hardAlpha" operator="arithmetic" k2="-1" k3="1"/><feColorMatrix type="matrix" values="0 0 0 0 0.12840427458286285 0 0 0 0 0.301335871219635 0 0 0 0 0.9049010276794434 0 0 0 0.3537410795688629 0"/><feBlend mode="normal" in2="shape" result="effect1_innerShadow"/></filter><linearGradient x1="0.5" y1="0" x2="0.5" y2="1" id="master_svg1_49_08819"><stop offset="0%" stop-color="#43B3FF" stop-opacity="1"/><stop offset="100%" stop-color="#1947FF" stop-opacity="1"/></linearGradient><clipPath id="bgblur_master_svg2_49_08884_clip_path"><rect x="0" y="0" width="29" height="21" rx="3"/></clipPath><linearGradient x1="0.5" y1="0" x2="0.5" y2="1" id="master_svg3_49_08826"><stop offset="0%" stop-color="#43B3FF" stop-opacity="1"/><stop offset="100%" stop-color="#1947FF" stop-opacity="1"/></linearGradient><linearGradient x1="0.5" y1="0" x2="0.5" y2="1" id="master_svg4_49_08827"><stop offset="0%" stop-color="#43B3FF" stop-opacity="1"/><stop offset="100%" stop-color="#1947FF" stop-opacity="1"/></linearGradient><filter id="master_svg5_49_08891" filterUnits="objectBoundingBox" color-interpolation-filters="sRGB" x="0" y="0" width="1" height="1"><feFlood flood-opacity="0" result="BackgroundImageFix"/><feBlend mode="normal" in="SourceGraphic" in2="BackgroundImageFix" result="shape"/><feColorMatrix in="SourceAlpha" type="matrix" result="hardAlpha" values="0 0 0 0 0 0 0 0 0 0 0 0 0 0 0 0 0 0 127 0"/><feOffset dy="1" dx="1"/><feGaussianBlur stdDeviation="0.5"/><feComposite in2="hardAlpha" operator="arithmetic" k2="-1" k3="1"/><feColorMatrix type="matrix" values="0 0 0 0 0.12840427458286285 0 0 0 0 0.301335871219635 0 0 0 0 0.9049010276794434 0 0 0 0.3537410795688629 0"/><feBlend mode="normal" in2="shape" result="effect1_innerShadow"/></filter><linearGradient x1="0.5" y1="0" x2="0.5" y2="1" id="master_svg6_49_08819"><stop offset="0%" stop-color="#43B3FF" stop-opacity="1"/><stop offset="100%" stop-color="#1947FF" stop-opacity="1"/></linearGradient><clipPath id="bgblur_master_svg7_49_08887_clip_path"><rect x="0" y="0" width="28" height="21" rx="3"/></clipPath><linearGradient x1="0.5" y1="0" x2="0.5" y2="1" id="master_svg8_49_08826"><stop offset="0%" stop-color="#43B3FF" stop-opacity="1"/><stop offset="100%" stop-color="#1947FF" stop-opacity="1"/></linearGradient><linearGradient x1="0.5" y1="0" x2="0.5" y2="1" id="master_svg9_49_08827"><stop offset="0%" stop-color="#43B3FF" stop-opacity="1"/><stop offset="100%" stop-color="#1947FF" stop-opacity="1"/></linearGradient><filter id="master_svga_49_08890" filterUnits="objectBoundingBox" color-interpolation-filters="sRGB" x="0" y="0" width="1" height="1"><feFlood flood-opacity="0" result="BackgroundImageFix"/><feBlend mode="normal" in="SourceGraphic" in2="BackgroundImageFix" result="shape"/><feColorMatrix in="SourceAlpha" type="matrix" result="hardAlpha" values="0 0 0 0 0 0 0 0 0 0 0 0 0 0 0 0 0 0 127 0"/><feOffset dy="1" dx="1"/><feGaussianBlur stdDeviation="0.5"/><feComposite in2="hardAlpha" operator="arithmetic" k2="-1" k3="1"/><feColorMatrix type="matrix" values="0 0 0 0 0.12840427458286285 0 0 0 0 0.301335871219635 0 0 0 0 0.9049010276794434 0 0 0 0.3537410795688629 0"/><feBlend mode="normal" in2="shape" result="effect1_innerShadow"/><feColorMatrix in="SourceAlpha" type="matrix" result="hardAlpha" values="0 0 0 0 0 0 0 0 0 0 0 0 0 0 0 0 0 0 127 0"/><feOffset dy="-0.5" dx="-0.5"/><feGaussianBlur stdDeviation="0.5"/><feComposite in2="hardAlpha" operator="arithmetic" k2="-1" k3="1"/><feColorMatrix type="matrix" values="0 0 0 0 1 0 0 0 0 1 0 0 0 0 1 0 0 0 1 0"/><feBlend mode="normal" in2="effect1_innerShadow" result="effect2_innerShadow"/></filter><linearGradient x1="0.5" y1="0" x2="0.5" y2="1" id="master_svgb_49_08819"><stop offset="0%" stop-color="#43B3FF" stop-opacity="1"/><stop offset="100%" stop-color="#1947FF" stop-opacity="1"/></linearGradient><filter id="master_svgc_49_08886" filterUnits="objectBoundingBox" color-interpolation-filters="sRGB" x="-1" y="-0.16666666666666666" width="3" height="1.6666666666666667"><feFlood flood-opacity="0" result="BackgroundImageFix"/><feColorMatrix in="SourceAlpha" type="matrix" values="0 0 0 0 0 0 0 0 0 0 0 0 0 0 0 0 0 0 127 0"/><feOffset dy="1" dx="0"/><feGaussianBlur stdDeviation="0.5"/><feColorMatrix type="matrix" values="0 0 0 0 0 0 0 0 0 0.1796799749135971 0 0 0 0 0.7538074851036072 0 0 0 0.7935977578163147 0"/><feBlend mode="normal" in2="BackgroundImageFix" result="effect1_dropShadow"/><feBlend mode="normal" in="SourceGraphic" in2="effect1_dropShadow" result="shape"/></filter><filter id="master_svgd_49_08885" filterUnits="objectBoundingBox" color-interpolation-filters="sRGB" x="-1" y="-0.1111111111111111" width="3" height="1.4444444444444444"><feFlood flood-opacity="0" result="BackgroundImageFix"/><feColorMatrix in="SourceAlpha" type="matrix" values="0 0 0 0 0 0 0 0 0 0 0 0 0 0 0 0 0 0 127 0"/><feOffset dy="1" dx="0"/><feGaussianBlur stdDeviation="0.5"/><feColorMatrix type="matrix" values="0 0 0 0 0 0 0 0 0 0.1796799749135971 0 0 0 0 0.7538074851036072 0 0 0 0.7935977578163147 0"/><feBlend mode="normal" in2="BackgroundImageFix" result="effect1_dropShadow"/><feBlend mode="normal" in="SourceGraphic" in2="effect1_dropShadow" result="shape"/></filter><filter id="master_svge_49_08889" filterUnits="objectBoundingBox" color-interpolation-filters="sRGB" x="-1" y="-0.25" width="3" height="2"><feFlood flood-opacity="0" result="BackgroundImageFix"/><feColorMatrix in="SourceAlpha" type="matrix" values="0 0 0 0 0 0 0 0 0 0 0 0 0 0 0 0 0 0 127 0"/><feOffset dy="1" dx="0"/><feGaussianBlur stdDeviation="0.5"/><feColorMatrix type="matrix" values="0 0 0 0 0 0 0 0 0 0.1796799749135971 0 0 0 0 0.7538074851036072 0 0 0 0.7935977578163147 0"/><feBlend mode="normal" in2="BackgroundImageFix" result="effect1_dropShadow"/><feBlend mode="normal" in="SourceGraphic" in2="effect1_dropShadow" result="shape"/></filter></defs><path d="M25.474609375 7.611328125C25.474609375 7.059043375169207 25.922324625169207 6.611328125 26.474609375 6.611328125L26.474609375 6.611328125C27.026894124830793 6.611328125 27.474609375 7.059043375169207 27.474609375 7.611328125L27.474609375 16.611328125C27.474609375 17.163612874830793 27.026894124830793 17.611328125 26.474609375 17.611328125L26.474609375 17.611328125C25.922324625169207 17.611328125 25.474609375 17.163612874830793 25.474609375 16.611328125Z" fill="url(#master_svg1_49_08819)" fill-opacity="1" transform="matrix(0.7071067690849304,0.7071067690849304,-0.7071067690849304,0.7071067690849304,12.136255515972152,-16.07685547368601)" filter="url(#master_svg0_49_08883)"/><foreignObject x="9.6083984375" y="9.18359375" width="29" height="21"><div xmlns="http://www.w3.org/1999/xhtml" style="backdrop-filter:blur(3.3333332538604736px);-webkit-backdrop-filter:blur(3.3333332538604736px);clip-path:url(#bgblur_master_svg2_49_08884_clip_path);height:100%;width:100%"></div></foreignObject><g transform="matrix(0.9659258127212524,0.258819043636322,-0.258819043636322,0.9659258127212524,2.7042873193277046,-2.1739130011410452)"><path d="M9.6083984375 12.18359375C9.6083984375 10.52673950050762 10.95154418800762 9.18359375 12.6083984375 9.18359375L35.6083984375 9.18359375C37.26525268699238 9.18359375 38.6083984375 10.52673950050762 38.6083984375 12.18359375L38.6083984375 27.18359375C38.6083984375 28.84044799949238 37.26525268699238 30.18359375 35.6083984375 30.18359375L12.6083984375 30.18359375C10.95154418800762 30.18359375 9.6083984375 28.84044799949238 9.6083984375 27.18359375Z" fill="url(#master_svg3_49_08826)" fill-opacity="0.10000000149011612"/><path d="M9.6083984375 12.18359375C9.6083984375 10.52673950050762 10.95154418800762 9.18359375 12.6083984375 9.18359375L35.6083984375 9.18359375C37.26525268699238 9.18359375 38.6083984375 10.52673950050762 38.6083984375 12.18359375L38.6083984375 27.18359375C38.6083984375 28.84044799949238 37.26525268699238 30.18359375 35.6083984375 30.18359375L12.6083984375 30.18359375C10.95154418800762 30.18359375 9.6083984375 28.84044799949238 9.6083984375 27.18359375Z" fill="url(#master_svg4_49_08827)" fill-opacity="0.10000000149011612"/><path d="M9.8583984375 12.43359375C9.8583984375 10.77673950050762 11.20154418800762 9.43359375 12.8583984375 9.43359375L35.3583984375 9.43359375C37.01525268699238 9.43359375 38.3583984375 10.77673950050762 38.3583984375 12.43359375L38.3583984375 26.93359375C38.3583984375 28.59044799949238 37.01525268699238 29.93359375 35.3583984375 29.93359375L12.8583984375 29.93359375C11.20154418800762 29.93359375 9.8583984375 28.59044799949238 9.8583984375 26.93359375Z" fill-opacity="0" stroke-opacity="0.699999988079071" stroke="#FFFFFF" fill="none" stroke-width="0.5"/></g><path d="M13.1103515625 9.025390625C13.1103515625 8.473105875169207 13.558066812669207 8.025390625 14.1103515625 8.025390625L14.1103515625 8.025390625C14.662636312330793 8.025390625 15.1103515625 8.473105875169207 15.1103515625 9.025390625L15.1103515625 18.025390625C15.1103515625 18.577675374830793 14.662636312330793 19.025390625 14.1103515625 19.025390625L14.1103515625 19.025390625C13.558066812669207 19.025390625 13.1103515625 18.577675374830793 13.1103515625 18.025390625Z" fill="url(#master_svg6_49_08819)" fill-opacity="1" transform="matrix(0.7071067690849304,-0.7071067690849304,0.7071067690849304,0.7071067690849304,-1.8348748079151846,11.621000924438704)" filter="url(#master_svg5_49_08891)"/><foreignObject x="6" y="12" width="28" height="21"><div xmlns="http://www.w3.org/1999/xhtml" style="backdrop-filter:blur(3.3333332538604736px);-webkit-backdrop-filter:blur(3.3333332538604736px);clip-path:url(#bgblur_master_svg7_49_08887_clip_path);height:100%;width:100%"></div></foreignObject><path d="M6 15C6 13.34314575050762 7.34314575050762 12 9 12L31 12C32.65685424949238 12 34 13.34314575050762 34 15L34 30C34 31.65685424949238 32.65685424949238 33 31 33L9 33C7.34314575050762 33 6 31.65685424949238 6 30Z" fill="url(#master_svg8_49_08826)" fill-opacity="0.10000000149011612"/><path d="M6 15C6 13.34314575050762 7.34314575050762 12 9 12L31 12C32.65685424949238 12 34 13.34314575050762 34 15L34 30C34 31.65685424949238 32.65685424949238 33 31 33L9 33C7.34314575050762 33 6 31.65685424949238 6 30Z" fill="url(#master_svg9_49_08827)" fill-opacity="0.10000000149011612"/><path d="M6.25 15.25C6.25 13.59314575050762 7.59314575050762 12.25 9.25 12.25L30.75 12.25C32.40685424949238 12.25 33.75 13.59314575050762 33.75 15.25L33.75 29.75C33.75 31.40685424949238 32.40685424949238 32.75 30.75 32.75L9.25 32.75C7.59314575050762 32.75 6.25 31.40685424949238 6.25 29.75Z" fill-opacity="0" stroke-opacity="0.699999988079071" stroke="#FFFFFF" fill="none" stroke-width="0.5"/><g filter="url(#master_svga_49_08890)"><path d="M9 17C9 15.895430500338414 9.895430500338414 15 11 15L29 15C30.104569499661586 15 31 15.895430500338414 31 17L31 28C31 29.104569499661586 30.104569499661586 30 29 30L11 30C9.895430500338414 30 9 29.104569499661586 9 28Z" fill="url(#master_svgb_49_08819)" fill-opacity="1"/><path d="M9.100000001490116 17.100000001490116C9.100000001490116 15.99543050182853 9.99543050182853 15.100000001490116 11.100000001490116 15.100000001490116L28.899999998509884 15.100000001490116C30.00456949817147 15.100000001490116 30.899999998509884 15.99543050182853 30.899999998509884 17.100000001490116L30.899999998509884 27.899999998509884C30.899999998509884 29.00456949817147 30.00456949817147 29.899999998509884 28.899999998509884 29.899999998509884L11.100000001490116 29.899999998509884C9.99543050182853 29.899999998509884 9.100000001490116 29.00456949817147 9.100000001490116 27.899999998509884Z" fill-opacity="0" stroke-opacity="1" stroke="#FFFFFF" fill="none" stroke-width="0.20000000298023224"/></g><path d="M14 22C14 21.447715250169207 14.447715250169207 21 15 21L15 21C15.552284749830793 21 16 21.447715250169207 16 22L16 26C16 26.552284749830793 15.552284749830793 27 15 27L15 27C14.447715250169207 27 14 26.552284749830793 14 26Z" fill="#FFFFFF" fill-opacity="1" filter="url(#master_svgc_49_08886)"/><path d="M19 19C19 18.447715250169207 19.447715250169207 18 20 18L20 18C20.552284749830793 18 21 18.447715250169207 21 19L21 26C21 26.552284749830793 20.552284749830793 27 20 27L20 27C19.447715250169207 27 19 26.552284749830793 19 26Z" fill="#FFFFFF" fill-opacity="1" filter="url(#master_svgd_49_08885)"/><path d="M24 24C24 23.447715250169207 24.447715250169207 23 25 23L25 23C25.552284749830793 23 26 23.447715250169207 26 24L26 26C26 26.552284749830793 25.552284749830793 27 25 27L25 27C24.447715250169207 27 24 26.552284749830793 24 26Z" fill="#FFFFFF" fill-opacity="1" filter="url(#master_svge_49_08889)"/></svg>