<svg xmlns="http://www.w3.org/2000/svg" xmlns:xlink="http://www.w3.org/1999/xlink" fill="none" version="1.1" width="20" height="20" viewBox="0 0 20 20"><defs><clipPath id="master_svg0_49_08296"><rect x="-0.8999999761581421" y="-0.8999999761581421" width="21.799999952316284" height="21.799999952316284" rx="0"/></clipPath></defs><g clip-path="url(#master_svg0_49_08296)"><path d="M5.3792450538604735,6.933332915441895L8.580105553860474,3.4414851654418945Q8.640002953860474,3.3761421454418947,8.686002053860474,3.3003692054418945Q8.732000553860473,3.2245962354418944,8.762333153860475,3.1413052954418945Q8.792665753860474,3.0580143654418945,8.806166453860474,2.9704062354418945Q8.819667053860474,2.8827981164418945,8.815817153860474,2.7942395354418945Q8.811966653860473,2.7056809554418946,8.790912853860473,2.6195751754418946Q8.769859553860474,2.5334693754418947,8.732412553860474,2.4531253854418944Q8.694965553860474,2.3727813954418946,8.642563553860473,2.3012867554418945Q8.590161553860472,2.2297921154418945,8.524819153860474,2.1698943354418945Q8.459475753860474,2.1099966154418945,8.383702953860475,2.0639975654418947Q8.307929753860474,2.0179985154418945,8.224638653860474,1.9876658954418946Q8.141348153860474,1.9573332054418944,8.053739753860473,1.9438326954418945Q7.966131953860474,1.9303321854418947,7.877573253860474,1.9341825254418945Q7.789015053860473,1.9380329254418944,7.7029087538604735,1.9590862354418945Q7.616802953860474,1.9801396154418947,7.536458753860473,2.0175867654418944Q7.456115053860474,2.0550339254418946,7.384620453860474,2.1074358854418946Q7.313125853860473,2.1598378454418947,7.253227953860474,2.2251808654418945L2.6698945738604736,7.225180615441895Q2.5489255738604735,7.357146715441894,2.4876660738604737,7.525360115441894Q2.4264065638604735,7.6935739154418945,2.4341827638604734,7.872426015441895Q2.4419589638604737,8.051278115441894,2.5175870038604735,8.213540115441894Q2.5932149838604737,8.375802015441895,2.7251811038604736,8.496771315441894Q2.849671243860474,8.610887015441895,3.0070625538604734,8.672109615441894Q3.1644538838604737,8.733332615441896,3.3333332538604736,8.733332615441896L16.666667253860474,8.733332615441896Q16.755309253860474,8.733332615441896,16.842247253860474,8.716039215441896Q16.929187253860473,8.698745715441895,17.011081253860475,8.664823515441896Q17.092976253860474,8.630901815441895,17.166679253860472,8.581654515441894Q17.240382253860474,8.532407715441895,17.303061253860474,8.469728515441894Q17.365741253860474,8.407049215441894,17.414989253860476,8.333345415441894Q17.464234253860475,8.259642615441894,17.498157253860473,8.177747715441894Q17.532079253860474,8.095852815441894,17.549373253860473,8.008914015441896Q17.566667253860473,7.921975115441895,17.566667253860473,7.8333330154418945Q17.566667253860473,7.7446904154418945,17.549373253860473,7.6577511154418945Q17.532079253860474,7.570812215441895,17.498157253860473,7.488917315441895Q17.464234253860475,7.407022515441895,17.414989253860476,7.333319615441894Q17.365741253860474,7.259615915441895,17.303061253860474,7.196936615441895Q17.240382253860474,7.134256815441894,17.166678253860475,7.085009615441894Q17.092976253860474,7.0357628154418945,17.011081253860475,7.001841115441895Q16.929187253860473,6.967919315441894,16.842247253860474,6.950626415441895Q16.755309253860474,6.933332915441895,16.666667253860474,6.933332915441895L5.3792450538604735,6.933332915441895Z" fill-rule="evenodd" fill="#191C1E" fill-opacity="1"/><path d="M14.620755253860473,13.066666964558106L11.419894453860474,16.558514584558104Q11.359996053860474,16.623857484558105,11.313997053860474,16.699630284558104Q11.267997953860473,16.775402984558106,11.237665453860473,16.858694084558106Q11.207332853860475,16.941985084558105,11.193831653860475,17.029593484558106Q11.180331453860473,17.117201784558105,11.184181953860474,17.205759984558107Q11.188032353860475,17.294318684558107,11.209085253860474,17.380424484558105Q11.230138553860474,17.466529884558106,11.267585953860474,17.546874084558105Q11.305032953860474,17.627218284558104,11.357435453860473,17.698712384558107Q11.409837053860473,17.770207384558105,11.475180853860474,17.830105284558105Q11.540523753860473,17.890002684558105,11.616296053860474,17.936001784558105Q11.692069253860474,17.982000784558107,11.775359353860473,18.012333884558107Q11.858651353860473,18.042666484558104,11.946259753860474,18.056166684558107Q12.033868053860473,18.069666884558107,12.122426253860473,18.065816884558107Q12.210984453860474,18.061966384558104,12.297089853860474,18.040913084558106Q12.383196153860474,18.019859784558108,12.463540353860473,17.982412384558106Q12.543883553860473,17.944965384558106,12.615378653860473,17.892563784558106Q12.686873653860474,17.840162284558104,12.746772053860473,17.774819384558107L17.33010625386047,12.774819194558106Q17.451075253860473,12.642853024558105,17.512334253860473,12.474639354558105Q17.573594253860474,12.306425664558105,17.565818253860474,12.127573497558105Q17.558042253860474,11.948721364558105,17.48241325386047,11.786459324558106Q17.406785253860473,11.624197304558106,17.27481925386047,11.503228304558105Q17.150329253860473,11.389112414558106,16.992937253860475,11.327889684558105Q16.83554625386047,11.266667064558106,16.666667253860474,11.266666944558105L3.3333332538604736,11.266667004558105Q3.2446909918604736,11.266667064558106,3.157751973860474,11.283960344558105Q3.0708129438604734,11.301253554558105,2.9889181838604735,11.335175514558106Q2.9070234038604736,11.369097414558105,2.8333200238604737,11.418344374558105Q2.7596167338604736,11.467591404558105,2.6969372038604735,11.530270934558105Q2.6342576738604735,11.592950464558106,2.5850107038604735,11.666653814558105Q2.535763683860474,11.740357134558106,2.5018417838604736,11.822251914558105Q2.4679198238604734,11.904146674558106,2.4506266138604738,11.991085704558106Q2.4333333338604737,12.078024722558105,2.4333332738604736,12.166666984558105Q2.4333333338604737,12.255309246558106,2.4506266138604738,12.342248264558105Q2.4679198238604734,12.429187294558105,2.5018417838604736,12.511082054558106Q2.535763683860474,12.592976834558105,2.585010643860474,12.666680214558106Q2.6342576738604735,12.740383504558105,2.6969372038604735,12.803063034558106Q2.7596167338604736,12.865742564558106,2.8333200838604737,12.914989534558105Q2.9070234038604736,12.964236554558106,2.9889181838604735,12.998158454558105Q3.0708129438604734,13.032080414558106,3.157751973860474,13.049373624558106Q3.2446909918604736,13.066666904558105,3.3333332538604736,13.066666964558106L14.620755253860473,13.066666964558106Z" fill-rule="evenodd" fill="#191C1E" fill-opacity="1"/></g></svg>