<svg xmlns="http://www.w3.org/2000/svg" xmlns:xlink="http://www.w3.org/1999/xlink" fill="none" version="1.1" width="16" height="16" viewBox="0 0 16 16"><path d="M0.42558019999999996,7.5999479Q0.36426508,7.6879883,0.33213252000000004,7.7903504Q0.29999995,7.8927126,0.30000001,8Q0.29999995,8.1072874,0.33213252000000004,8.20965Q0.36426508,8.3120127,0.42558019999999996,8.400052500000001Q3.7684841,13.1999998,8,13.1999998Q12.231516,13.1999998,15.57442,8.400052500000001Q15.635736,8.3120127,15.66787,8.20965Q15.700001,8.1072874,15.7,8Q15.700001,7.8927126,15.66787,7.7903504Q15.635736,7.6879883,15.57442,7.5999479Q12.231516,2.80000055,8,2.79999995Q3.7684846,2.79999995,0.42558019999999996,7.5999479ZM1.86137635,8.000000499999999Q4.670408699999999,11.8000002,8,11.8000002Q11.329592,11.8000002,14.138624,8.000000499999999Q11.329592,4.20000023,8,4.20000005Q4.670408999999999,4.20000005,1.86137635,8.000000499999999Z" fill-rule="evenodd" fill="#FFFFFF" fill-opacity="1"/><path d="M11,8Q11,8.1473808,10.9855542,8.2940516Q10.9711084,8.4407225,10.9423552,8.5852709Q10.9136028,8.7298198,10.870821,8.870854099999999Q10.8280382,9.011888500000001,10.7716379,9.148049799999999Q10.7152381,9.284212100000001,10.6457634,9.4141903Q10.5762887,9.5441685,10.494408100000001,9.6667104Q10.412528,9.789253200000001,10.319031200000001,9.9031796Q10.2255344,10.0171061,10.1213202,10.1213198Q10.017107,10.225534,9.903180599999999,10.319031200000001Q9.7892537,10.412528,9.6667109,10.494408100000001Q9.5441685,10.5762887,9.4141908,10.6457634Q9.284212100000001,10.7152381,9.148050300000001,10.7716379Q9.011888500000001,10.8280382,8.870854399999999,10.870821Q8.7298198,10.9136028,8.5852709,10.9423552Q8.4407225,10.9711084,8.2940516,10.9855542Q8.1473808,11,8,11Q7.8526194,11,7.7059484000000005,10.9855542Q7.5592775,10.9711084,7.4147286,10.9423552Q7.2701802,10.9136028,7.1291459,10.870821Q6.9881115000000005,10.8280382,6.8519496,10.7716379Q6.7157879000000005,10.7152381,6.5858097,10.6457634Q6.4558318,10.5762887,6.3332891,10.494408100000001Q6.2107468,10.412528,6.0968201,10.319031200000001Q5.9828934700000005,10.2255344,5.87867963,10.1213202Q5.77446592,10.017107,5.68096864,9.903180599999999Q5.58747137,9.7892537,5.50559109,9.6667109Q5.42371088,9.5441685,5.35423619,9.4141908Q5.28476149,9.284212100000001,5.22836138,9.148050300000001Q5.17196131,9.011888500000001,5.12917899,8.870854399999999Q5.086396672,8.7298198,5.057644151,8.5852709Q5.028891638,8.4407225,5.014445819,8.2940516Q5,8.1473808,5,8Q5,7.8526194,5.014445819,7.7059484000000005Q5.028891638,7.5592775,5.057644151,7.4147286Q5.086396672,7.2701802,5.12917899,7.1291459Q5.17196131,6.9881115000000005,5.22836138,6.8519496Q5.28476149,6.7157879000000005,5.35423622,6.5858097Q5.42371094,6.4558318,5.50559115,6.3332891Q5.58747143,6.2107468,5.68096864,6.0968201Q5.77446592,5.9828934700000005,5.87867963,5.87867963Q5.9828934700000005,5.77446592,6.0968201,5.68096864Q6.2107468,5.58747137,6.3332891,5.50559109Q6.4558318,5.42371088,6.5858099,5.35423619Q6.7157879000000005,5.28476149,6.8519496,5.22836138Q6.9881115000000005,5.17196131,7.1291459,5.12917899Q7.2701802,5.086396672,7.4147289,5.057644151Q7.5592775,5.028891638,7.7059484000000005,5.014445819Q7.8526194,5,8,5Q8.1473808,5,8.2940516,5.014445819Q8.4407225,5.028891638,8.5852709,5.057644151Q8.7298198,5.086396672,8.870854099999999,5.12917899Q9.011888500000001,5.17196131,9.148049799999999,5.22836138Q9.284212100000001,5.28476149,9.4141903,5.35423622Q9.5441685,5.42371094,9.6667104,5.50559115Q9.789253200000001,5.58747143,9.9031796,5.68096864Q10.0171061,5.77446592,10.1213198,5.87867963Q10.225534,5.9828934700000005,10.319031200000001,6.0968201Q10.412528,6.2107468,10.494408100000001,6.3332891Q10.5762887,6.4558318,10.6457634,6.5858099Q10.7152381,6.7157879000000005,10.7716379,6.8519496Q10.8280382,6.9881115000000005,10.870821,7.1291459Q10.9136028,7.2701802,10.9423552,7.4147289Q10.9711084,7.5592775,10.9855542,7.7059484000000005Q11,7.8526194,11,8ZM9.5999999,8Q9.5999999,7.9213971999999995,9.592295199999999,7.8431728Q9.5845909,7.7649484,9.5692558,7.6878554999999995Q9.5539212,7.6107631,9.5311041,7.5355446Q9.5082865,7.4603262,9.4782066,7.3877063Q9.4481268,7.3150868,9.4110737,7.2457652Q9.3740206,7.1764436,9.3303509,7.111087599999999Q9.286681699999999,7.0457318,9.2368164,6.9849708Q9.1869516,6.9242098,9.1313705,6.8686291Q9.075790399999999,6.8130486,9.0150294,6.7631834Q8.9542682,6.7133181,8.888912,6.6696485Q8.8235562,6.6259792,8.754234799999999,6.588926Q8.6849132,6.5518727000000005,8.6122932,6.5217925Q8.5396738,6.4917126,8.4644554,6.4688953Q8.3892369,6.4460782000000005,8.3121443,6.4307435Q8.2350519,6.4154088,8.156827400000001,6.4077044999999995Q8.078603000000001,6.4000001,8,6.4Q7.9213971999999995,6.4000001,7.8431728,6.4077044999999995Q7.7649484,6.4154088,7.6878554999999995,6.4307435Q7.6107631,6.4460783,7.5355446,6.4688954Q7.4603262,6.4917127,7.3877063,6.5217927Q7.3150868,6.5518727000000005,7.2457652,6.588926Q7.1764436,6.6259792,7.111087599999999,6.6696485Q7.0457318,6.7133181,6.9849708,6.7631834Q6.9242098,6.8130486,6.8686291,6.8686291Q6.8130485,6.9242098,6.7631834,6.9849708Q6.7133181,7.0457318,6.6696484,7.111087599999999Q6.6259789,7.1764436,6.5889258,7.2457652Q6.5518726,7.3150868,6.5217925,7.3877063Q6.4917126,7.4603262,6.4688953,7.5355446Q6.4460781,7.6107628,6.4307435,7.6878551999999996Q6.4154088,7.7649481,6.4077044999999995,7.8431726Q6.4,7.9213971999999995,6.4,8Q6.4,8.078603000000001,6.4077044,8.156827400000001Q6.4154088,8.2350519,6.4307435,8.3121443Q6.4460782000000005,8.3892369,6.4688954,8.4644554Q6.4917126,8.5396738,6.5217927,8.6122932Q6.5518727000000005,8.6849132,6.5889258,8.754234799999999Q6.6259791,8.823556400000001,6.6696484,8.8889122Q6.7133181,8.9542685,6.7631832,9.0150294Q6.8130485,9.075790399999999,6.8686291,9.1313705Q6.9242098,9.1869516,6.9849708,9.2368164Q7.0457318,9.286681699999999,7.111087599999999,9.3303509Q7.1764436,9.3740206,7.2457652,9.4110737Q7.3150868,9.4481268,7.3877063,9.4782066Q7.4603262,9.5082865,7.5355446,9.5311041Q7.6107628,9.5539212,7.6878551999999996,9.5692558Q7.7649481,9.5845909,7.8431726,9.5922956Q7.9213971999999995,9.5999999,8,9.5999999Q8.078603000000001,9.5999999,8.156827400000001,9.592295199999999Q8.2350519,9.5845909,8.3121443,9.5692558Q8.3892369,9.5539212,8.4644554,9.5311041Q8.5396738,9.5082865,8.6122932,9.4782066Q8.6849132,9.4481268,8.754234799999999,9.4110737Q8.823556400000001,9.3740206,8.8889122,9.3303509Q8.9542685,9.286681699999999,9.0150294,9.2368164Q9.075790399999999,9.1869516,9.1313705,9.1313705Q9.1869516,9.075790399999999,9.2368164,9.0150294Q9.286681699999999,8.9542682,9.3303509,8.888912Q9.3740206,8.8235562,9.4110737,8.754234799999999Q9.4481268,8.6849132,9.4782066,8.6122932Q9.5082865,8.5396738,9.5311041,8.4644554Q9.5539212,8.3892369,9.5692558,8.3121443Q9.5845909,8.2350519,9.5922956,8.156827400000001Q9.5999999,8.078603000000001,9.5999999,8Z" fill-rule="evenodd" fill="#FFFFFF" fill-opacity="1"/></svg>