<svg xmlns="http://www.w3.org/2000/svg" xmlns:xlink="http://www.w3.org/1999/xlink" fill="none" version="1.1" width="16" height="16" viewBox="0 0 16 16"><defs><clipPath id="master_svg0_49_08861"><rect x="15.399999976158142" y="-0.6000000238418579" width="17.200000047683716" height="17.200000047683716" rx="0"/></clipPath></defs><g transform="matrix(-1,0,0,1,32,0)" clip-path="url(#master_svg0_49_08861)"><g transform="matrix(0,1,-1,0,29.5,-21.5)"><path d="M29.924264,8.424264L33.924264,4.4242640699999995Q33.966050100000004,4.3824777,33.9988804,4.33334211Q34.0317116,4.28420654,34.0543261,4.22961004Q34.0769405,4.17501353,34.0884695,4.11705418Q34.0999985,4.059094839,34.0999985,4Q34.0999985,3.940905161,34.0884705,3.88294582Q34.0769405,3.82498647,34.054327,3.77038996Q34.0317116,3.71579346,33.9988813,3.66665787Q33.966050100000004,3.6175223,33.924264,3.57573593Q33.839872400000004,3.49134457,33.7296095,3.44567227Q33.6193466,3.39999998,33.4999995,3.39999998Q33.380652,3.39999998,33.2703896,3.44567227Q33.1601272,3.49134457,33.075736,3.57573593L29.5,7.151472099999999L25.92426407,3.57573593Q25.8824777,3.53394958,25.83334211,3.50111824Q25.78420654,3.46828693,25.72961004,3.44567233Q25.67501353,3.42305773,25.61705418,3.41152894Q25.559094839,3.4000000999999997,25.5,3.40000004Q25.440905161,3.4000000999999997,25.38294582,3.41152889Q25.32498647,3.42305773,25.27038996,3.44567233Q25.21579346,3.46828693,25.16665787,3.50111827Q25.1175223,3.53394958,25.07573593,3.57573593Q25.03394958,3.6175223,25.00111824,3.6666578899999998Q24.96828693,3.71579346,24.94567233,3.77038996Q24.92305773,3.82498647,24.91152894,3.88294582Q24.9000001,3.940905161,24.90000004,4Q24.9000001,4.059094839,24.91152889,4.11705418Q24.92305773,4.17501353,24.94567233,4.22961004Q24.96828693,4.28420654,25.00111827,4.33334213Q25.03394958,4.3824777,25.07573593,4.4242640699999995L29.075736,8.424264Q29.1175222,8.4660501,29.1666579,8.4988813Q29.2157931,8.531712500000001,29.2703898,8.554327Q29.3249865,8.5769415,29.3829458,8.5884705Q29.440905100000002,8.5999994,29.5,8.5999994Q29.5590944,8.5999994,29.6170535,8.5884705Q29.6750126,8.5769415,29.7296095,8.554327Q29.784206400000002,8.531712500000001,29.8333421,8.4988813Q29.8824778,8.4660501,29.924264,8.424264Z" fill-rule="evenodd" fill="#222222" fill-opacity="1"/></g></g></svg>