<svg xmlns="http://www.w3.org/2000/svg" xmlns:xlink="http://www.w3.org/1999/xlink" fill="none" version="1.1" width="40" height="40" viewBox="0 0 40 40"><defs><clipPath id="bgblur_master_svg0_49_08824_clip_path"><rect x="0" y="0" width="25" height="28" rx="3"/></clipPath><linearGradient x1="0.5" y1="0" x2="0.5" y2="1" id="master_svg1_49_08826"><stop offset="0%" stop-color="#43B3FF" stop-opacity="1"/><stop offset="100%" stop-color="#1947FF" stop-opacity="1"/></linearGradient><linearGradient x1="0.5" y1="0" x2="0.5" y2="1" id="master_svg2_49_08827"><stop offset="0%" stop-color="#43B3FF" stop-opacity="1"/><stop offset="100%" stop-color="#1947FF" stop-opacity="1"/></linearGradient><filter id="master_svg3_49_08817" filterUnits="objectBoundingBox" color-interpolation-filters="sRGB" x="0" y="0" width="1" height="1"><feFlood flood-opacity="0" result="BackgroundImageFix"/><feBlend mode="normal" in="SourceGraphic" in2="BackgroundImageFix" result="shape"/><feColorMatrix in="SourceAlpha" type="matrix" result="hardAlpha" values="0 0 0 0 0 0 0 0 0 0 0 0 0 0 0 0 0 0 127 0"/><feOffset dy="1" dx="1"/><feGaussianBlur stdDeviation="0.5"/><feComposite in2="hardAlpha" operator="arithmetic" k2="-1" k3="1"/><feColorMatrix type="matrix" values="0 0 0 0 0.12840427458286285 0 0 0 0 0.301335871219635 0 0 0 0 0.9049010276794434 0 0 0 0.3537410795688629 0"/><feBlend mode="normal" in2="shape" result="effect1_innerShadow"/><feColorMatrix in="SourceAlpha" type="matrix" result="hardAlpha" values="0 0 0 0 0 0 0 0 0 0 0 0 0 0 0 0 0 0 127 0"/><feOffset dy="-0.5" dx="-0.5"/><feGaussianBlur stdDeviation="0.5"/><feComposite in2="hardAlpha" operator="arithmetic" k2="-1" k3="1"/><feColorMatrix type="matrix" values="0 0 0 0 1 0 0 0 0 1 0 0 0 0 1 0 0 0 1 0"/><feBlend mode="normal" in2="effect1_innerShadow" result="effect2_innerShadow"/></filter><linearGradient x1="0.5" y1="0" x2="0.5" y2="1" id="master_svg4_49_08819"><stop offset="0%" stop-color="#43B3FF" stop-opacity="1"/><stop offset="100%" stop-color="#1947FF" stop-opacity="1"/></linearGradient><clipPath id="bgblur_master_svg5_49_08831_clip_path"><rect x="0" y="0" width="23" height="7" rx="2.4000000953674316"/></clipPath><linearGradient x1="0.5" y1="0" x2="0.5" y2="1" id="master_svg6_49_08826"><stop offset="0%" stop-color="#43B3FF" stop-opacity="1"/><stop offset="100%" stop-color="#1947FF" stop-opacity="1"/></linearGradient><linearGradient x1="0.5" y1="0" x2="0.5" y2="1" id="master_svg7_49_08827"><stop offset="0%" stop-color="#43B3FF" stop-opacity="1"/><stop offset="100%" stop-color="#1947FF" stop-opacity="1"/></linearGradient><filter id="master_svg8_49_08844" filterUnits="objectBoundingBox" color-interpolation-filters="sRGB" x="-1" y="-0.5" width="3" height="3"><feFlood flood-opacity="0" result="BackgroundImageFix"/><feColorMatrix in="SourceAlpha" type="matrix" values="0 0 0 0 0 0 0 0 0 0 0 0 0 0 0 0 0 0 127 0"/><feOffset dy="1" dx="0"/><feGaussianBlur stdDeviation="0.5"/><feColorMatrix type="matrix" values="0 0 0 0 0 0 0 0 0 0.1796799749135971 0 0 0 0 0.7538074851036072 0 0 0 0.7935977578163147 0"/><feBlend mode="normal" in2="BackgroundImageFix" result="effect1_dropShadow"/><feBlend mode="normal" in="SourceGraphic" in2="effect1_dropShadow" result="shape"/></filter><filter id="master_svg9_49_08845" filterUnits="objectBoundingBox" color-interpolation-filters="sRGB" x="-1" y="-0.5" width="3" height="3"><feFlood flood-opacity="0" result="BackgroundImageFix"/><feColorMatrix in="SourceAlpha" type="matrix" values="0 0 0 0 0 0 0 0 0 0 0 0 0 0 0 0 0 0 127 0"/><feOffset dy="1" dx="0"/><feGaussianBlur stdDeviation="0.5"/><feColorMatrix type="matrix" values="0 0 0 0 0 0 0 0 0 0.1796799749135971 0 0 0 0 0.7538074851036072 0 0 0 0.7935977578163147 0"/><feBlend mode="normal" in2="BackgroundImageFix" result="effect1_dropShadow"/><feBlend mode="normal" in="SourceGraphic" in2="effect1_dropShadow" result="shape"/></filter><filter id="master_svga_49_08836" filterUnits="objectBoundingBox" color-interpolation-filters="sRGB" x="-1" y="-0.5" width="3" height="3"><feFlood flood-opacity="0" result="BackgroundImageFix"/><feColorMatrix in="SourceAlpha" type="matrix" values="0 0 0 0 0 0 0 0 0 0 0 0 0 0 0 0 0 0 127 0"/><feOffset dy="1" dx="0"/><feGaussianBlur stdDeviation="0.5"/><feColorMatrix type="matrix" values="0 0 0 0 0 0 0 0 0 0.1796799749135971 0 0 0 0 0.7538074851036072 0 0 0 0.7935977578163147 0"/><feBlend mode="normal" in2="BackgroundImageFix" result="effect1_dropShadow"/><feBlend mode="normal" in="SourceGraphic" in2="effect1_dropShadow" result="shape"/></filter><filter id="master_svgb_49_08834" filterUnits="objectBoundingBox" color-interpolation-filters="sRGB" x="-1" y="-0.5" width="3" height="3"><feFlood flood-opacity="0" result="BackgroundImageFix"/><feColorMatrix in="SourceAlpha" type="matrix" values="0 0 0 0 0 0 0 0 0 0 0 0 0 0 0 0 0 0 127 0"/><feOffset dy="1" dx="0"/><feGaussianBlur stdDeviation="0.5"/><feColorMatrix type="matrix" values="0 0 0 0 0 0 0 0 0 0.1796799749135971 0 0 0 0 0.7538074851036072 0 0 0 0.7935977578163147 0"/><feBlend mode="normal" in2="BackgroundImageFix" result="effect1_dropShadow"/><feBlend mode="normal" in="SourceGraphic" in2="effect1_dropShadow" result="shape"/></filter><filter id="master_svgc_49_08842" filterUnits="objectBoundingBox" color-interpolation-filters="sRGB" x="-1" y="-0.5" width="3" height="3"><feFlood flood-opacity="0" result="BackgroundImageFix"/><feColorMatrix in="SourceAlpha" type="matrix" values="0 0 0 0 0 0 0 0 0 0 0 0 0 0 0 0 0 0 127 0"/><feOffset dy="1" dx="0"/><feGaussianBlur stdDeviation="0.5"/><feColorMatrix type="matrix" values="0 0 0 0 0 0 0 0 0 0.1796799749135971 0 0 0 0 0.7538074851036072 0 0 0 0.7935977578163147 0"/><feBlend mode="normal" in2="BackgroundImageFix" result="effect1_dropShadow"/><feBlend mode="normal" in="SourceGraphic" in2="effect1_dropShadow" result="shape"/></filter><filter id="master_svgd_49_08848" filterUnits="objectBoundingBox" color-interpolation-filters="sRGB" x="-1" y="-0.5" width="3" height="3"><feFlood flood-opacity="0" result="BackgroundImageFix"/><feColorMatrix in="SourceAlpha" type="matrix" values="0 0 0 0 0 0 0 0 0 0 0 0 0 0 0 0 0 0 127 0"/><feOffset dy="1" dx="0"/><feGaussianBlur stdDeviation="0.5"/><feColorMatrix type="matrix" values="0 0 0 0 0 0 0 0 0 0.1796799749135971 0 0 0 0 0.7538074851036072 0 0 0 0.7935977578163147 0"/><feBlend mode="normal" in2="BackgroundImageFix" result="effect1_dropShadow"/><feBlend mode="normal" in="SourceGraphic" in2="effect1_dropShadow" result="shape"/></filter><filter id="master_svge_49_08830" filterUnits="objectBoundingBox" color-interpolation-filters="sRGB" x="-1" y="-0.5" width="3" height="3"><feFlood flood-opacity="0" result="BackgroundImageFix"/><feColorMatrix in="SourceAlpha" type="matrix" values="0 0 0 0 0 0 0 0 0 0 0 0 0 0 0 0 0 0 127 0"/><feOffset dy="1" dx="0"/><feGaussianBlur stdDeviation="0.5"/><feColorMatrix type="matrix" values="0 0 0 0 0 0 0 0 0 0.1796799749135971 0 0 0 0 0.7538074851036072 0 0 0 0.7935977578163147 0"/><feBlend mode="normal" in2="BackgroundImageFix" result="effect1_dropShadow"/><feBlend mode="normal" in="SourceGraphic" in2="effect1_dropShadow" result="shape"/></filter><filter id="master_svgf_49_08843" filterUnits="objectBoundingBox" color-interpolation-filters="sRGB" x="-1" y="-0.5" width="3" height="3"><feFlood flood-opacity="0" result="BackgroundImageFix"/><feColorMatrix in="SourceAlpha" type="matrix" values="0 0 0 0 0 0 0 0 0 0 0 0 0 0 0 0 0 0 127 0"/><feOffset dy="1" dx="0"/><feGaussianBlur stdDeviation="0.5"/><feColorMatrix type="matrix" values="0 0 0 0 0 0 0 0 0 0.1796799749135971 0 0 0 0 0.7538074851036072 0 0 0 0.7935977578163147 0"/><feBlend mode="normal" in2="BackgroundImageFix" result="effect1_dropShadow"/><feBlend mode="normal" in="SourceGraphic" in2="effect1_dropShadow" result="shape"/></filter><filter id="master_svgg_49_08835" filterUnits="objectBoundingBox" color-interpolation-filters="sRGB" x="-1" y="-0.5" width="3" height="3"><feFlood flood-opacity="0" result="BackgroundImageFix"/><feColorMatrix in="SourceAlpha" type="matrix" values="0 0 0 0 0 0 0 0 0 0 0 0 0 0 0 0 0 0 127 0"/><feOffset dy="1" dx="0"/><feGaussianBlur stdDeviation="0.5"/><feColorMatrix type="matrix" values="0 0 0 0 0 0 0 0 0 0.1796799749135971 0 0 0 0 0.7538074851036072 0 0 0 0.7935977578163147 0"/><feBlend mode="normal" in2="BackgroundImageFix" result="effect1_dropShadow"/><feBlend mode="normal" in="SourceGraphic" in2="effect1_dropShadow" result="shape"/></filter><filter id="master_svgh_49_08813" filterUnits="objectBoundingBox" color-interpolation-filters="sRGB" x="-1" y="-0.5" width="3" height="3"><feFlood flood-opacity="0" result="BackgroundImageFix"/><feColorMatrix in="SourceAlpha" type="matrix" values="0 0 0 0 0 0 0 0 0 0 0 0 0 0 0 0 0 0 127 0"/><feOffset dy="1" dx="0"/><feGaussianBlur stdDeviation="0.5"/><feColorMatrix type="matrix" values="0 0 0 0 0 0 0 0 0 0.1796799749135971 0 0 0 0 0.7538074851036072 0 0 0 0.7935977578163147 0"/><feBlend mode="normal" in2="BackgroundImageFix" result="effect1_dropShadow"/><feBlend mode="normal" in="SourceGraphic" in2="effect1_dropShadow" result="shape"/></filter><filter id="master_svgi_49_08816" filterUnits="objectBoundingBox" color-interpolation-filters="sRGB" x="-1" y="-0.5" width="3" height="3"><feFlood flood-opacity="0" result="BackgroundImageFix"/><feColorMatrix in="SourceAlpha" type="matrix" values="0 0 0 0 0 0 0 0 0 0 0 0 0 0 0 0 0 0 127 0"/><feOffset dy="1" dx="0"/><feGaussianBlur stdDeviation="0.5"/><feColorMatrix type="matrix" values="0 0 0 0 0 0 0 0 0 0.1796799749135971 0 0 0 0 0.7538074851036072 0 0 0 0.7935977578163147 0"/><feBlend mode="normal" in2="BackgroundImageFix" result="effect1_dropShadow"/><feBlend mode="normal" in="SourceGraphic" in2="effect1_dropShadow" result="shape"/></filter><filter id="master_svgj_49_08847" filterUnits="objectBoundingBox" color-interpolation-filters="sRGB" x="-1" y="-0.5" width="3" height="3"><feFlood flood-opacity="0" result="BackgroundImageFix"/><feColorMatrix in="SourceAlpha" type="matrix" values="0 0 0 0 0 0 0 0 0 0 0 0 0 0 0 0 0 0 127 0"/><feOffset dy="1" dx="0"/><feGaussianBlur stdDeviation="0.5"/><feColorMatrix type="matrix" values="0 0 0 0 0 0 0 0 0 0.1796799749135971 0 0 0 0 0.7538074851036072 0 0 0 0.7935977578163147 0"/><feBlend mode="normal" in2="BackgroundImageFix" result="effect1_dropShadow"/><feBlend mode="normal" in="SourceGraphic" in2="effect1_dropShadow" result="shape"/></filter><filter id="master_svgk_49_08846" filterUnits="objectBoundingBox" color-interpolation-filters="sRGB" x="0" y="0" width="1" height="1"><feFlood flood-opacity="0" result="BackgroundImageFix"/><feBlend mode="normal" in="SourceGraphic" in2="BackgroundImageFix" result="shape"/><feColorMatrix in="SourceAlpha" type="matrix" result="hardAlpha" values="0 0 0 0 0 0 0 0 0 0 0 0 0 0 0 0 0 0 127 0"/><feOffset dy="1" dx="1"/><feGaussianBlur stdDeviation="0.5"/><feComposite in2="hardAlpha" operator="arithmetic" k2="-1" k3="1"/><feColorMatrix type="matrix" values="0 0 0 0 0.12840427458286285 0 0 0 0 0.301335871219635 0 0 0 0 0.9049010276794434 0 0 0 0.3537410795688629 0"/><feBlend mode="normal" in2="shape" result="effect1_innerShadow"/></filter><linearGradient x1="0.5" y1="0" x2="0.5" y2="1" id="master_svgl_49_08819"><stop offset="0%" stop-color="#43B3FF" stop-opacity="1"/><stop offset="100%" stop-color="#1947FF" stop-opacity="1"/></linearGradient><filter id="master_svgm_49_08849" filterUnits="objectBoundingBox" color-interpolation-filters="sRGB" x="0" y="0" width="1" height="1"><feFlood flood-opacity="0" result="BackgroundImageFix"/><feBlend mode="normal" in="SourceGraphic" in2="BackgroundImageFix" result="shape"/><feColorMatrix in="SourceAlpha" type="matrix" result="hardAlpha" values="0 0 0 0 0 0 0 0 0 0 0 0 0 0 0 0 0 0 127 0"/><feOffset dy="1" dx="1"/><feGaussianBlur stdDeviation="0.5"/><feComposite in2="hardAlpha" operator="arithmetic" k2="-1" k3="1"/><feColorMatrix type="matrix" values="0 0 0 0 0.12840427458286285 0 0 0 0 0.301335871219635 0 0 0 0 0.9049010276794434 0 0 0 0.3537410795688629 0"/><feBlend mode="normal" in2="shape" result="effect1_innerShadow"/></filter><linearGradient x1="0.5" y1="0" x2="0.5" y2="1" id="master_svgn_49_08819"><stop offset="0%" stop-color="#43B3FF" stop-opacity="1"/><stop offset="100%" stop-color="#1947FF" stop-opacity="1"/></linearGradient><filter id="master_svgo_49_08837" filterUnits="objectBoundingBox" color-interpolation-filters="sRGB" x="0" y="0" width="1" height="1"><feFlood flood-opacity="0" result="BackgroundImageFix"/><feBlend mode="normal" in="SourceGraphic" in2="BackgroundImageFix" result="shape"/><feColorMatrix in="SourceAlpha" type="matrix" result="hardAlpha" values="0 0 0 0 0 0 0 0 0 0 0 0 0 0 0 0 0 0 127 0"/><feOffset dy="1" dx="1"/><feGaussianBlur stdDeviation="0.5"/><feComposite in2="hardAlpha" operator="arithmetic" k2="-1" k3="1"/><feColorMatrix type="matrix" values="0 0 0 0 0.12840427458286285 0 0 0 0 0.301335871219635 0 0 0 0 0.9049010276794434 0 0 0 0.3537410795688629 0"/><feBlend mode="normal" in2="shape" result="effect1_innerShadow"/></filter><linearGradient x1="0.5" y1="0" x2="0.5" y2="1" id="master_svgp_49_08819"><stop offset="0%" stop-color="#43B3FF" stop-opacity="1"/><stop offset="100%" stop-color="#1947FF" stop-opacity="1"/></linearGradient></defs><foreignObject x="7.5" y="7" width="25" height="28"><div xmlns="http://www.w3.org/1999/xhtml" style="backdrop-filter:blur(3.3333332538604736px);-webkit-backdrop-filter:blur(3.3333332538604736px);clip-path:url(#bgblur_master_svg0_49_08824_clip_path);height:100%;width:100%"></div></foreignObject><path d="M7.5 10C7.5 8.34314575050762 8.84314575050762 7 10.5 7L29.5 7C31.15685424949238 7 32.5 8.34314575050762 32.5 10L32.5 32C32.5 33.65685424949238 31.15685424949238 35 29.5 35L10.5 35C8.84314575050762 35 7.5 33.65685424949238 7.5 32Z" fill="url(#master_svg1_49_08826)" fill-opacity="0.10000000149011612"/><path d="M7.5 10C7.5 8.34314575050762 8.84314575050762 7 10.5 7L29.5 7C31.15685424949238 7 32.5 8.34314575050762 32.5 10L32.5 32C32.5 33.65685424949238 31.15685424949238 35 29.5 35L10.5 35C8.84314575050762 35 7.5 33.65685424949238 7.5 32Z" fill="url(#master_svg2_49_08827)" fill-opacity="0.10000000149011612"/><path d="M7.75 10.25C7.75 8.59314575050762 9.09314575050762 7.25 10.75 7.25L29.25 7.25C30.90685424949238 7.25 32.25 8.59314575050762 32.25 10.25L32.25 31.75C32.25 33.40685424949238 30.90685424949238 34.75 29.25 34.75L10.75 34.75C9.09314575050762 34.75 7.75 33.40685424949238 7.75 31.75Z" fill-opacity="0" stroke-opacity="0.699999988079071" stroke="#FFFFFF" fill="none" stroke-width="0.5"/><g filter="url(#master_svg3_49_08817)"><path d="M10.5 15C10.5 13.895430500338414 11.395430500338414 13 12.5 13L27.5 13C28.604569499661586 13 29.5 13.895430500338414 29.5 15L29.5 30C29.5 31.104569499661586 28.604569499661586 32 27.5 32L12.5 32C11.395430500338414 32 10.5 31.104569499661586 10.5 30Z" fill="url(#master_svg4_49_08819)" fill-opacity="1"/><path d="M10.600000001490116 15.100000001490116C10.600000001490116 13.99543050182853 11.49543050182853 13.100000001490116 12.600000001490116 13.100000001490116L27.399999998509884 13.100000001490116C28.50456949817147 13.100000001490116 29.399999998509884 13.99543050182853 29.399999998509884 15.100000001490116L29.399999998509884 29.899999998509884C29.399999998509884 31.00456949817147 28.50456949817147 31.899999998509884 27.399999998509884 31.899999998509884L12.600000001490116 31.899999998509884C11.49543050182853 31.899999998509884 10.600000001490116 31.00456949817147 10.600000001490116 29.899999998509884Z" fill-opacity="0" stroke-opacity="1" stroke="#FFFFFF" fill="none" stroke-width="0.20000000298023224"/></g><foreignObject x="8.5" y="8" width="23" height="7"><div xmlns="http://www.w3.org/1999/xhtml" style="backdrop-filter:blur(0.8333334922790527px);-webkit-backdrop-filter:blur(0.8333334922790527px);clip-path:url(#bgblur_master_svg5_49_08831_clip_path);height:100%;width:100%"></div></foreignObject><path d="M8.5 10.400000095367432C8.5 9.07451664310355 9.57451664310355 8 10.900000095367432 8L29.09999990463257 8C30.42548335689645 8 31.5 9.07451664310355 31.5 10.400000095367432L31.5 12.599999904632568C31.5 13.92548335689645 30.42548335689645 15 29.09999990463257 15L10.900000095367432 15C9.57451664310355 15 8.5 13.92548335689645 8.5 12.599999904632568Z" fill="url(#master_svg6_49_08826)" fill-opacity="0.10000000149011612"/><path d="M8.5 10.400000095367432C8.5 9.07451664310355 9.57451664310355 8 10.900000095367432 8L29.09999990463257 8C30.42548335689645 8 31.5 9.07451664310355 31.5 10.400000095367432L31.5 12.599999904632568C31.5 13.92548335689645 30.42548335689645 15 29.09999990463257 15L10.900000095367432 15C9.57451664310355 15 8.5 13.92548335689645 8.5 12.599999904632568Z" fill="url(#master_svg7_49_08827)" fill-opacity="0.10000000149011612"/><path d="M8.75 10.650000095367432C8.75 9.32451664310355 9.82451664310355 8.25 11.150000095367432 8.25L28.84999990463257 8.25C30.17548335689645 8.25 31.25 9.32451664310355 31.25 10.650000095367432L31.25 12.349999904632568C31.25 13.67548335689645 30.17548335689645 14.75 28.84999990463257 14.75L11.150000095367432 14.75C9.82451664310355 14.75 8.75 13.67548335689645 8.75 12.349999904632568Z" fill-opacity="0" stroke-opacity="0.699999988079071" stroke="#FFFFFF" fill="none" stroke-width="0.5"/><path d="M18.8994140625 17.600000023841858C18.8994140625 17.268629160775887 19.168043223275887 17 19.499414086341858 17L20.299414038658142 17C20.630784901724113 17 20.8994140625 17.268629160775887 20.8994140625 17.600000023841858L20.8994140625 18.399999976158142C20.8994140625 18.731370839224113 20.630784901724113 19 20.299414038658142 19L19.499414086341858 19C19.168043223275887 19 18.8994140625 18.731370839224113 18.8994140625 18.399999976158142Z" fill="#FFFFFF" fill-opacity="1" filter="url(#master_svg8_49_08844)"/><path d="M22.099609375 17.600000023841858C22.099609375 17.268629160775887 22.368238535775887 17 22.699609398841858 17L23.499609351158142 17C23.830980214224113 17 24.099609375 17.268629160775887 24.099609375 17.600000023841858L24.099609375 18.399999976158142C24.099609375 18.731370839224113 23.830980214224113 19 23.499609351158142 19L22.699609398841858 19C22.368238535775887 19 22.099609375 18.731370839224113 22.099609375 18.399999976158142Z" fill="#FFFFFF" fill-opacity="1" filter="url(#master_svg9_49_08845)"/><path d="M25.2998046875 17.600000023841858C25.2998046875 17.268629160775887 25.568433848275887 17 25.899804711341858 17L26.699804663658142 17C27.031175526724113 17 27.2998046875 17.268629160775887 27.2998046875 17.600000023841858L27.2998046875 18.399999976158142C27.2998046875 18.731370839224113 27.031175526724113 19 26.699804663658142 19L25.899804711341858 19C25.568433848275887 19 25.2998046875 18.731370839224113 25.2998046875 18.399999976158142Z" fill="#FFFFFF" fill-opacity="1" filter="url(#master_svga_49_08836)"/><path d="M18.8994140625 21.600000023841858C18.8994140625 21.268629160775887 19.168043223275887 21 19.499414086341858 21L20.299414038658142 21C20.630784901724113 21 20.8994140625 21.268629160775887 20.8994140625 21.600000023841858L20.8994140625 22.399999976158142C20.8994140625 22.731370839224113 20.630784901724113 23 20.299414038658142 23L19.499414086341858 23C19.168043223275887 23 18.8994140625 22.731370839224113 18.8994140625 22.399999976158142Z" fill="#FFFFFF" fill-opacity="1" filter="url(#master_svgb_49_08834)"/><path d="M22.099609375 21.600000023841858C22.099609375 21.268629160775887 22.368238535775887 21 22.699609398841858 21L23.499609351158142 21C23.830980214224113 21 24.099609375 21.268629160775887 24.099609375 21.600000023841858L24.099609375 22.399999976158142C24.099609375 22.731370839224113 23.830980214224113 23 23.499609351158142 23L22.699609398841858 23C22.368238535775887 23 22.099609375 22.731370839224113 22.099609375 22.399999976158142Z" fill="#FFFFFF" fill-opacity="1" filter="url(#master_svgc_49_08842)"/><path d="M25.2998046875 21.600000023841858C25.2998046875 21.268629160775887 25.568433848275887 21 25.899804711341858 21L26.699804663658142 21C27.031175526724113 21 27.2998046875 21.268629160775887 27.2998046875 21.600000023841858L27.2998046875 22.399999976158142C27.2998046875 22.731370839224113 27.031175526724113 23 26.699804663658142 23L25.899804711341858 23C25.568433848275887 23 25.2998046875 22.731370839224113 25.2998046875 22.399999976158142Z" fill="#FFFFFF" fill-opacity="1" filter="url(#master_svgd_49_08848)"/><path d="M12.5 21.600000023841858C12.5 21.268629160775887 12.768629160775887 21 13.100000023841858 21L13.899999976158142 21C14.231370839224113 21 14.5 21.268629160775887 14.5 21.600000023841858L14.5 22.399999976158142C14.5 22.731370839224113 14.231370839224113 23 13.899999976158142 23L13.100000023841858 23C12.768629160775887 23 12.5 22.731370839224113 12.5 22.399999976158142Z" fill="#FFFFFF" fill-opacity="1" filter="url(#master_svge_49_08830)"/><path d="M15.69921875 21.600000023841858C15.69921875 21.268629160775887 15.967847910775887 21 16.299218773841858 21L17.099218726158142 21C17.430589589224113 21 17.69921875 21.268629160775887 17.69921875 21.600000023841858L17.69921875 22.399999976158142C17.69921875 22.731370839224113 17.430589589224113 23 17.099218726158142 23L16.299218773841858 23C15.967847910775887 23 15.69921875 22.731370839224113 15.69921875 22.399999976158142Z" fill="#FFFFFF" fill-opacity="1" filter="url(#master_svgf_49_08843)"/><path d="M18.8994140625 25.600000023841858C18.8994140625 25.268629160775887 19.168043223275887 25 19.499414086341858 25L20.299414038658142 25C20.630784901724113 25 20.8994140625 25.268629160775887 20.8994140625 25.600000023841858L20.8994140625 26.399999976158142C20.8994140625 26.731370839224113 20.630784901724113 27 20.299414038658142 27L19.499414086341858 27C19.168043223275887 27 18.8994140625 26.731370839224113 18.8994140625 26.399999976158142Z" fill="#FFFFFF" fill-opacity="1" filter="url(#master_svgg_49_08835)"/><path d="M22.099609375 25.600000023841858C22.099609375 25.268629160775887 22.368238535775887 25 22.699609398841858 25L23.499609351158142 25C23.830980214224113 25 24.099609375 25.268629160775887 24.099609375 25.600000023841858L24.099609375 26.399999976158142C24.099609375 26.731370839224113 23.830980214224113 27 23.499609351158142 27L22.699609398841858 27C22.368238535775887 27 22.099609375 26.731370839224113 22.099609375 26.399999976158142Z" fill="#FFFFFF" fill-opacity="1" filter="url(#master_svgh_49_08813)"/><path d="M12.5 25.600000023841858C12.5 25.268629160775887 12.768629160775887 25 13.100000023841858 25L13.899999976158142 25C14.231370839224113 25 14.5 25.268629160775887 14.5 25.600000023841858L14.5 26.399999976158142C14.5 26.731370839224113 14.231370839224113 27 13.899999976158142 27L13.100000023841858 27C12.768629160775887 27 12.5 26.731370839224113 12.5 26.399999976158142Z" fill="#FFFFFF" fill-opacity="1" filter="url(#master_svgi_49_08816)"/><path d="M15.69921875 25.600000023841858C15.69921875 25.268629160775887 15.967847910775887 25 16.299218773841858 25L17.099218726158142 25C17.430589589224113 25 17.69921875 25.268629160775887 17.69921875 25.600000023841858L17.69921875 26.399999976158142C17.69921875 26.731370839224113 17.430589589224113 27 17.099218726158142 27L16.299218773841858 27C15.967847910775887 27 15.69921875 26.731370839224113 15.69921875 26.399999976158142Z" fill="#FFFFFF" fill-opacity="1" filter="url(#master_svgj_49_08847)"/><path d="M13.5 6.5C13.5 5.947715250169207 13.947715250169207 5.5 14.5 5.5L14.5 5.5C15.052284749830793 5.5 15.5 5.947715250169207 15.5 6.5L15.5 9.5C15.5 10.052284749830793 15.052284749830793 10.5 14.5 10.5L14.5 10.5C13.947715250169207 10.5 13.5 10.052284749830793 13.5 9.5Z" fill="url(#master_svgl_49_08819)" fill-opacity="1" filter="url(#master_svgk_49_08846)"/><path d="M19 6.5C19 5.947715250169207 19.447715250169207 5.5 20 5.5L20 5.5C20.552284749830793 5.5 21 5.947715250169207 21 6.5L21 9.5C21 10.052284749830793 20.552284749830793 10.5 20 10.5L20 10.5C19.447715250169207 10.5 19 10.052284749830793 19 9.5Z" fill="url(#master_svgn_49_08819)" fill-opacity="1" filter="url(#master_svgm_49_08849)"/><path d="M24.5 6.5C24.5 5.947715250169207 24.947715250169207 5.5 25.5 5.5L25.5 5.5C26.052284749830793 5.5 26.5 5.947715250169207 26.5 6.5L26.5 9.5C26.5 10.052284749830793 26.052284749830793 10.5 25.5 10.5L25.5 10.5C24.947715250169207 10.5 24.5 10.052284749830793 24.5 9.5Z" fill="url(#master_svgp_49_08819)" fill-opacity="1" filter="url(#master_svgo_49_08837)"/></svg>