<svg xmlns="http://www.w3.org/2000/svg" xmlns:xlink="http://www.w3.org/1999/xlink" fill="none" version="1.1" width="40" height="40" viewBox="0 0 40 40"><ellipse cx="17" cy="21" rx="2" ry="2" fill="#E1E6EE" fill-opacity="1"/><path d="M5,5.620702278125L5,38.000069078125L26,38.000069078125L26,1.8855914781249998L5,5.620702278125ZM9,34.000070078125L22,34.000070078125L22,6.659818378125L9,8.972030178125L9,34.000070078125Z" fill-rule="evenodd" fill="#E1E6EE" fill-opacity="1"/><path d="M30,10L30,35.999998000000005L33.999999,35.999998000000005L33.999999,6L25,6L25,10L30,10Z" fill-rule="evenodd" fill="#E1E6EE" fill-opacity="1"/><path d="M0 34C0 34 0 34 0 34L22 34C22 34 22 34 22 34L22 38C22 38 22 38 22 38L0 38C0 38 0 38 0 38Z" fill="#E1E6EE" fill-opacity="1"/><path d="M30 34C30 34 30 34 30 34L40 34C40 34 40 34 40 34L40 38C40 38 40 38 40 38L30 38C30 38 30 38 30 38Z" fill="#E1E6EE" fill-opacity="1"/></svg>