<svg xmlns="http://www.w3.org/2000/svg" xmlns:xlink="http://www.w3.org/1999/xlink" fill="none" version="1.1" width="16" height="16" viewBox="0 0 16 16"><defs><clipPath id="master_svg0_0_11310"><rect x="-0.6000000238418579" y="-0.6000000238418579" width="17.200000047683716" height="17.200000047683716" rx="0"/></clipPath></defs><g clip-path="url(#master_svg0_0_11310)"><path d="M1.39999998,3.75L1.39999998,12.75Q1.4000000400000001,13.619849,2.015075892,14.234924Q2.63015085,14.849999,3.5,14.849999L12.5,14.849999Q13.36985,14.849999,13.984924,14.234924Q14.599999,13.61985,14.599999,12.75L14.599999,3.75Q14.599999,2.8801509100000002,13.984924,2.265075803Q13.369849,1.64999998,12.5,1.64999998L3.5,1.6500000400000001Q2.63015163,1.6500000400000001,2.015075758,2.265075803Q1.39999998,2.8801515699999998,1.39999998,3.75ZM2.86360395,13.386396Q2.60000014,13.122793,2.60000014,12.75L2.60000002,3.75Q2.60000002,3.3772079,2.8636038900000003,3.11360407Q3.1272078,2.85000014,3.5,2.85000014L12.5,2.85000002Q12.872793,2.85000002,13.136396,3.1136038900000003Q13.4,3.3772072,13.4,3.75L13.4,12.75Q13.4,13.122793,13.136396,13.386396Q12.872793,13.65,12.5,13.65L3.5,13.65Q3.1272073000000002,13.65,2.86360395,13.386396Z" fill-rule="evenodd" fill="#99A0AC" fill-opacity="1"/><path d="M10.39999998,0.75L10.39999998,3.75Q10.39999999,3.8090947,10.41152883,3.867054Q10.42305768,3.9250131,10.44567229,3.9796095Q10.4682869,4.0342062,10.50111824,4.0833416Q10.533949569,4.1324773,10.575735927,4.1742637Q10.61752229,4.2160499,10.66665785,4.2488813Q10.715793408,4.281712499999999,10.77038991,4.304327Q10.82498643,4.3269417,10.88294578,4.3384707Q10.94090515,4.3499997,11,4.3499999Q11.05909485,4.3499997,11.11705416,4.3384707Q11.17501354,4.326942,11.22961003,4.3043271999999995Q11.28420651,4.281712499999999,11.33334208,4.2488813Q11.3824777,4.2160501,11.42426407,4.174264Q11.466050450000001,4.1324775,11.49888182,4.0833417999999995Q11.53171313,4.0342064,11.55432773,3.9796097Q11.57694232,3.9250131,11.58847111,3.8670537Q11.59999996,3.8090947,11.60000002,3.75L11.60000002,0.75Q11.59999996,0.690905157,11.58847111,0.63294581Q11.57694227,0.57498646,11.55432767,0.52038994Q11.53171307,0.46579343,11.49888176,0.41665787Q11.466050450000001,0.3675223,11.42426407,0.32573593Q11.3824777,0.28394958,11.33334213,0.25111824Q11.28420651,0.21828693,11.22961003,0.19567232999999995Q11.17501354,0.17305768,11.11705416,0.16152882999999996Q11.05909485,0.14999998000000003,11,0.14999998000000003Q10.94090515,0.14999998000000003,10.88294578,0.16152882999999996Q10.82498643,0.17305768,10.77038991,0.19567232999999995Q10.715793408,0.21828693,10.66665785,0.25111827Q10.61752229,0.28394958,10.575735927,0.32573593Q10.533949569,0.3675223,10.50111824,0.41665787Q10.4682869,0.46579343,10.44567229,0.52038994Q10.42305768,0.57498646,10.41152883,0.63294581Q10.39999999,0.690905157,10.39999998,0.75Z" fill-rule="evenodd" fill="#99A0AC" fill-opacity="1"/><path d="M4.39999998,0.75L4.39999998,3.75Q4.39999999,3.8090947,4.41152883,3.867054Q4.42305768,3.9250131,4.44567229,3.9796095Q4.4682869,4.0342062,4.50111824,4.0833416Q4.533949569,4.1324773,4.575735927,4.1742637Q4.61752229,4.2160499,4.66665785,4.2488813Q4.715793408,4.281712499999999,4.7703899100000005,4.304327Q4.82498643,4.3269417,4.88294578,4.3384707Q4.94090515,4.3499997,5,4.3499999Q5.05909485,4.3499997,5.11705416,4.3384707Q5.17501354,4.326942,5.22961003,4.3043271999999995Q5.28420651,4.281712499999999,5.3333420799999995,4.2488813Q5.3824777,4.2160501,5.4242640699999995,4.174264Q5.46605045,4.1324775,5.49888182,4.0833417999999995Q5.53171313,4.0342064,5.55432773,3.9796097Q5.57694232,3.9250131,5.58847111,3.8670537Q5.59999996,3.8090947,5.6000000199999995,3.75L5.6000000199999995,0.75Q5.59999996,0.690905157,5.58847111,0.63294581Q5.57694227,0.57498646,5.55432767,0.52038994Q5.53171307,0.46579343,5.49888176,0.41665787Q5.46605045,0.3675223,5.4242640699999995,0.32573593Q5.3824777,0.28394958,5.33334213,0.25111824Q5.28420651,0.21828693,5.22961003,0.19567232999999995Q5.17501354,0.17305768,5.11705416,0.16152882999999996Q5.05909485,0.14999998000000003,5,0.14999998000000003Q4.94090515,0.14999998000000003,4.88294578,0.16152882999999996Q4.82498643,0.17305768,4.7703899100000005,0.19567232999999995Q4.715793408,0.21828693,4.66665785,0.25111827Q4.61752229,0.28394958,4.575735927,0.32573593Q4.533949569,0.3675223,4.50111824,0.41665787Q4.4682869,0.46579343,4.44567229,0.52038994Q4.42305768,0.57498646,4.41152883,0.63294581Q4.39999999,0.690905157,4.39999998,0.75Z" fill-rule="evenodd" fill="#99A0AC" fill-opacity="1"/><path d="M2,7.3500000199999995L14,7.3500000199999995Q14.059094,7.34999996,14.117054,7.33847111Q14.175013,7.32694227,14.229609,7.30432767Q14.284206,7.28171307,14.333342,7.24888176Q14.382478,7.21605045,14.424264,7.1742640699999995Q14.466051,7.1324777,14.498882,7.08334213Q14.531713,7.03420651,14.554328,6.97961003Q14.576942,6.92501354,14.588472,6.86705416Q14.6,6.80909485,14.6,6.75Q14.6,6.69090515,14.58847,6.63294578Q14.576942,6.57498643,14.554328,6.5203899100000005Q14.531713,6.465793408,14.498882,6.41665785Q14.466051,6.36752229,14.424265,6.325735927Q14.382479,6.283949569,14.333343,6.25111824Q14.284206,6.2182869,14.229609,6.19567229Q14.175013,6.17305768,14.117053,6.16152883Q14.059094,6.14999999,14,6.14999998L2,6.14999998Q1.940905157,6.14999999,1.88294581,6.16152883Q1.82498646,6.17305768,1.77038994,6.19567229Q1.71579343,6.2182869,1.6666578699999999,6.25111824Q1.6175223,6.283949569,1.57573593,6.325735927Q1.53394958,6.36752229,1.50111824,6.41665785Q1.46828693,6.465793408,1.4456723299999998,6.5203899100000005Q1.4230576799999999,6.57498643,1.41152883,6.63294578Q1.39999998,6.69090515,1.39999998,6.75Q1.39999998,6.80909485,1.41152883,6.86705416Q1.4230576799999999,6.92501354,1.4456723299999998,6.97961003Q1.46828693,7.03420651,1.50111827,7.0833420799999995Q1.53394958,7.1324777,1.57573593,7.1742640699999995Q1.6175223,7.21605045,1.6666578699999999,7.24888182Q1.71579343,7.28171313,1.77038994,7.30432773Q1.82498646,7.32694232,1.88294581,7.33847111Q1.940905157,7.34999996,2,7.3500000199999995Z" fill-rule="evenodd" fill="#99A0AC" fill-opacity="1"/><path d="M4.7230468949999995,8.66603946685791C5.054417785,8.66603946685791,5.323046875,8.934668596857911,5.323046875,9.26603948685791C5.323046875,9.59741037685791,5.054417785,9.86603946685791,4.7230468949999995,9.86603946685791C4.391676005,9.86603946685791,4.123046875,9.59741037685791,4.123046875,9.26603948685791C4.123046875,8.934668596857911,4.391676005,8.66603946685791,4.7230468949999995,8.66603946685791" fill-rule="evenodd" fill="#99A0AC" fill-opacity="1"/><path d="M4.7230468950018185,10.86623477935791C5.054417785001819,10.86623477935791,5.323046875001819,11.134863909357911,5.323046875001819,11.46623479935791C5.323046875001819,11.79760568935791,5.054417785001819,12.06623477935791,4.7230468950018185,12.06623477935791C4.391676005001819,12.06623477935791,4.123046875001819,11.79760568935791,4.123046875001819,11.46623479935791C4.123046875001819,11.134863909357911,4.391676005001819,10.86623477935791,4.7230468950018185,10.86623477935791" fill-rule="evenodd" fill="#99A0AC" fill-opacity="1"/><path d="M6.9232422074999995,8.66603946685791C7.2546130975,8.66603946685791,7.5232421875,8.934668596857911,7.5232421875,9.26603948685791C7.5232421875,9.59741037685791,7.2546130975,9.86603946685791,6.9232422074999995,9.86603946685791C6.5918713175,9.86603946685791,6.3232421875,9.59741037685791,6.3232421875,9.26603948685791C6.3232421875,8.934668596857911,6.5918713175,8.66603946685791,6.9232422074999995,8.66603946685791" fill-rule="evenodd" fill="#99A0AC" fill-opacity="1"/><path d="M6.9232422074999995,10.86623477935791C7.2546130975,10.86623477935791,7.5232421875,11.134863909357911,7.5232421875,11.46623479935791C7.5232421875,11.79760568935791,7.2546130975,12.06623477935791,6.9232422074999995,12.06623477935791C6.5918713175,12.06623477935791,6.3232421875,11.79760568935791,6.3232421875,11.46623479935791C6.3232421875,11.134863909357911,6.5918713175,10.86623477935791,6.9232422074999995,10.86623477935791" fill-rule="evenodd" fill="#99A0AC" fill-opacity="1"/><path d="M9.12343752,8.66603946685791C9.45480841,8.66603946685791,9.7234375,8.934668596857911,9.7234375,9.26603948685791C9.7234375,9.59741037685791,9.45480841,9.86603946685791,9.12343752,9.86603946685791C8.79206663,9.86603946685791,8.5234375,9.59741037685791,8.5234375,9.26603948685791C8.5234375,8.934668596857911,8.79206663,8.66603946685791,9.12343752,8.66603946685791" fill-rule="evenodd" fill="#99A0AC" fill-opacity="1"/><path d="M9.12343752,10.86623477935791C9.45480841,10.86623477935791,9.7234375,11.134863909357911,9.7234375,11.46623479935791C9.7234375,11.79760568935791,9.45480841,12.06623477935791,9.12343752,12.06623477935791C8.79206663,12.06623477935791,8.5234375,11.79760568935791,8.5234375,11.46623479935791C8.5234375,11.134863909357911,8.79206663,10.86623477935791,9.12343752,10.86623477935791" fill-rule="evenodd" fill="#99A0AC" fill-opacity="1"/><path d="M11.32265627,8.66603946685791C11.65402716,8.66603946685791,11.92265625,8.934668596857911,11.92265625,9.26603948685791C11.92265625,9.59741037685791,11.65402716,9.86603946685791,11.32265627,9.86603946685791C10.99128538,9.86603946685791,10.72265625,9.59741037685791,10.72265625,9.26603948685791C10.72265625,8.934668596857911,10.99128538,8.66603946685791,11.32265627,8.66603946685791" fill-rule="evenodd" fill="#99A0AC" fill-opacity="1"/></g></svg>