<svg xmlns="http://www.w3.org/2000/svg" xmlns:xlink="http://www.w3.org/1999/xlink" fill="none" version="1.1" width="28" height="28" viewBox="0 0 28 28"><defs><mask id="master_svg0_15_9897" style="mask-type:luminance" maskUnits="userSpaceOnUse" x="0" y="0" width="28" height="28"><path d="M0 8C4.90527396329193e-16 3.5817220013536524 3.5817220013536533 0 8 0L20 0C24.418277998646346 0 28 3.5817220013536533 28 8L28 20C28 24.418277998646346 24.418277998646346 28 20 28L8 28C3.5817220013536533 28 0 24.418277998646346 0 20Z" fill="#FFFFFF" fill-opacity="1"/></mask></defs><g mask="url(#master_svg0_15_9897)"><path d="M0 8C4.90527396329193e-16 3.5817220013536524 3.5817220013536533 0 8 0L20 0C24.418277998646346 0 28 3.5817220013536533 28 8L28 20C28 24.418277998646346 24.418277998646346 28 20 28L8 28C3.5817220013536533 28 0 24.418277998646346 0 20Z" fill="#EFECFF" fill-opacity="1"/><path d="M14.69999993,13.660176190625L14.69999993,11.988525390625Q14.69999993,11.919581420625,14.68654954,11.851962190625Q14.67309928,11.784342970625,14.64671552,11.720647040625Q14.62033182,11.656951130625,14.58202863,11.599626300625Q14.54372537,11.542301480625,14.49497467,11.493550720625Q14.44622391,11.444800020625,14.38889909,11.406496760625Q14.33157426,11.368193510625,14.26787835,11.341809810625Q14.20418242,11.315426110625,14.1365632,11.301975730625Q14.06894397,11.288525460625,14,11.288525460625Q13.93105603,11.288525460625,13.8634368,11.301975850625Q13.79581758,11.315426110625,13.73212165,11.341809870625Q13.66842574,11.368193570625,13.61110091,11.406496760625Q13.55377609,11.444800020625,13.50502533,11.493550720625Q13.45627463,11.542301480625,13.41797137,11.599626300625Q13.37966812,11.656951130625,13.35328442,11.720647040625Q13.32690072,11.784342970625,13.31345034,11.851962190625Q13.30000007,11.919581420625,13.30000007,11.988525390625L13.30000007,13.999982390625Q13.30000007,14.079408390625,13.31779516,14.156815090624999Q13.3355903,14.234221890625001,13.3702758,14.305673790625Q13.40496129,14.377125990625,13.4547736,14.438990590625Q13.50458598,14.500854990625001,13.56699252,14.549986390625L15.9575498,16.432025390625Q16.0669522,16.518156090625,16.2009878,16.555863890624998Q16.3350234,16.593571690624998,16.4732862,16.577115490625Q16.6115489,16.560659390625,16.7329898,16.492545590625Q16.8544307,16.424431290625,16.9405613,16.315028690625Q16.9832087,16.260857590625,17.014468700000002,16.199408090625Q17.0457282,16.137958090625,17.0643992,16.071590390625Q17.0830703,16.005222790624998,17.0884347,15.936487690625Q17.0937996,15.867752590624999,17.0856514,15.799291890625Q17.0775032,15.730831190625,17.0561557,15.665275090625Q17.0348077,15.599719490625,17.001081,15.539587990625Q16.9673543,15.479456690625,16.922545,15.427060590625Q16.8777351,15.374664590625,16.8235648,15.332017190624999L14.69999993,13.660176190625Z" fill-rule="evenodd" fill="#3813FF" fill-opacity="1"/><ellipse cx="14" cy="14" rx="5.300000011920929" ry="5.300000011920929" fill-opacity="0" stroke-opacity="1" stroke="#3813FF" fill="none" stroke-width="1.399999976158142"/></g></svg>