<svg xmlns="http://www.w3.org/2000/svg" xmlns:xlink="http://www.w3.org/1999/xlink" fill="none" version="1.1" width="28" height="28" viewBox="0 0 28 28"><defs><mask id="master_svg0_15_9872" style="mask-type:luminance" maskUnits="userSpaceOnUse" x="0" y="0" width="28" height="28"><path d="M0 8C4.90527396329193e-16 3.5817220013536524 3.5817220013536533 0 8 0L20 0C24.418277998646346 0 28 3.5817220013536533 28 8L28 20C28 24.418277998646346 24.418277998646346 28 20 28L8 28C3.5817220013536533 28 0 24.418277998646346 0 20Z" fill="#FFFFFF" fill-opacity="1"/></mask></defs><g mask="url(#master_svg0_15_9872)"><path d="M0 8C4.90527396329193e-16 3.5817220013536524 3.5817220013536533 0 8 0L20 0C24.418277998646346 0 28 3.5817220013536533 28 8L28 20C28 24.418277998646346 24.418277998646346 28 20 28L8 28C3.5817220013536533 28 0 24.418277998646346 0 20Z" fill="#FFF1DF" fill-opacity="1"/><ellipse cx="14" cy="11" rx="2.300000011920929" ry="2.300000011920929" fill-opacity="0" stroke-opacity="1" stroke="#FF6600" fill="none" stroke-width="1.399999976158142"/><path d="M8,19.353288173675537L20,19.353288173675537L20,18.852342573675536C20,18.456058473675537,19.999582,18.176068273675536,19.98632,17.95328787367554C19.977876000000002,17.811456673675536,19.964226,17.69281317367554,19.942161,17.582111573675537C19.7556,16.646111773675536,19.131186,15.851779173675537,18.265715,15.449461973675538C18.002572999999998,15.327139733675537,17.6752987,15.246456623675536,17.0450668,15.093298013675538C16.365700699999998,14.928199053675538,16.024087899999998,14.845249713675537,15.6838121,14.787122963675538C14.5693703,14.596751223675538,13.4306293,14.596751223675538,12.3161874,14.787122963675538C11.9759116,14.845249713675537,11.6342988,14.928199173675537,10.9549334,15.093298073675538C10.3247015,15.246456623675536,9.9974279,15.327139733675537,9.7342863,15.449461973675538C8.86881435,15.851779173675537,8.24440053,16.646111773675536,8.057839617,17.582111573675537C8.035774875,17.69281317367554,8.022124162,17.811456673675536,8.013680218,17.95328787367554C8.0004169578,18.176068073675538,8,18.456058073675536,8,18.852342173675538L8,19.353288173675537ZM11.285537999999999,16.453702673675537Q10.467469,16.652509173675536,10.3244348,16.718998473675537Q9.5892984,17.06072907367554,9.4308324,17.85577297367554Q9.4242426,17.888834673675536,9.4190612,17.95328787367554L18.580938,17.95328787367554Q18.575757,17.888832373675537,18.569167,17.855772773675536Q18.410702,17.060729273675538,17.675566699999997,16.718999373675537Q17.5325327,16.65250967367554,16.7144623,16.453702473675538Q15.7415371,16.217262873675537,15.4480743,16.167133073675537Q13.999999500000001,15.919769273675538,12.5519238,16.167133073675537Q12.2584658,16.217262273675537,11.285537999999999,16.453702673675537Z" fill-rule="evenodd" fill="#FF6600" fill-opacity="1"/></g></svg>