<svg xmlns="http://www.w3.org/2000/svg" xmlns:xlink="http://www.w3.org/1999/xlink" fill="none" version="1.1" width="16" height="16" viewBox="0 0 16 16"><defs><clipPath id="master_svg0_49_08363"><rect x="-0.5" y="-0.5" width="17" height="17" rx="0"/></clipPath><mask id="master_svg1_49_08370" style="mask-type:alpha" maskUnits="userSpaceOnUse" x="-0.787109375" y="8" width="14.042963027954102" height="7.288552284240723"><path d="M6.884308325,14.8163323C5.069416525,12.131001900000001,7.065306225,9,12.076094625,9.3015242C17.086881625,9.6030483,4.703073525,7.999999999999792,1.6655075250000002,7.999999999999792C-1.3720586849999998,7.999999999999792,-0.730537072,9.9174432,-0.730537072,13.2311516C-0.730537072,16.5448599,6.923906825,14.8749228,6.884308325,14.8163323Z" fill-rule="evenodd" fill="#FFFFFF" fill-opacity="1"/></mask></defs><g clip-path="url(#master_svg0_49_08363)"><g mask="url(#master_svg1_49_08370)"><path d="M1.23435682,10.7329612C4.3128421,9.61351192,7.6871586,9.61351192,10.765644,10.7329613C11.206519,10.8932798,11.5,11.312281800000001,11.5,11.7814023L11.5,12.2357373C11.5,13.2101126,10.710113,14,9.7357368,14L2.2642626999999997,14C1.28988725,14,0.5000000000001646,13.2101126,0.5000000000003677,12.2357373L0.5000000000004624,11.781402100000001C0.5000000000005602,11.312281800000001,0.79348049,10.8932798,1.23435682,10.7329612" fill-rule="evenodd" fill="#191C1E" fill-opacity="1"/><path d="M0,11.7814023L0,12.2357376Q2.9999999984209325e-8,13.173625000000001,0.6631871,13.8368125Q1.32637447,14.5,2.2642628,14.5L9.7357368,14.5Q10.673626,14.5,11.336812,13.8368134Q12,13.1736255,12,12.2357376L12,11.7814026Q12,11.2718735,11.707685,10.8545328Q11.415369,10.4371934,10.936517,10.2630649Q8.5448675,9.3933742,6.0000005,9.3933742Q3.4551334,9.39337417,1.06348503,10.2630641Q0.584631875,10.4371928,0.292316,10.8545324Q0,11.271872,0,11.7814023ZM1.3702940300000002,13.129705900000001Q1.00000006,12.7594118,1,12.2357368L1,11.7814023Q1,11.3502138,1.4052287300000001,11.2028575Q3.6313081,10.3933742,6.0000005,10.3933742Q8.3686929,10.3933742,10.594774,11.2028582Q10.999999,11.3502133,10.999999,11.7814026L10.999999,12.2357376Q10.999999,12.7594128,10.629706,13.1297064Q10.2594128,13.500000499999999,9.7357368,13.500000499999999L2.2642628,13.500000499999999Q1.7405882,13.500000499999999,1.3702940300000002,13.129705900000001Z" fill-rule="evenodd" fill="#191C1E" fill-opacity="1"/></g><ellipse cx="6" cy="4.5" rx="2.75" ry="2.75" fill="#191C1E" fill-opacity="1"/><ellipse cx="6" cy="4.5" rx="2.25" ry="2.25" fill-opacity="0" stroke-opacity="1" stroke="#191C1E" fill="none" stroke-width="1" stroke-linejoin="round"/><ellipse cx="12" cy="7.5" rx="1.75" ry="1.75" fill="#191C1E" fill-opacity="1"/><ellipse cx="12" cy="7.5" rx="1.25" ry="1.25" fill-opacity="0" stroke-opacity="1" stroke="#191C1E" fill="none" stroke-width="1" stroke-linejoin="round"/><path d="M9.11031437,11.82562447C10.9989831,11.28600484,13.0010166,11.28600484,14.8896856,11.82562447C15.250938399999999,11.9288395,15.5,12.2590281,15.5,12.6347365L15.5,12.859945100000001C15.5,13.489580199999999,14.989580199999999,14,14.3599453,14L9.640054899999999,14C9.01041996,14,8.5,13.489580199999999,8.5,12.859945100000001L8.5,12.6347365C8.5,12.2590281,8.74906164,11.9288395,9.11031437,11.82562447" fill-rule="evenodd" fill="#191C1E" fill-opacity="1"/><path d="M8,12.6347365L8,12.859945100000001Q7.99999994,13.539278,8.480360953,14.0196393Q8.96072173,14.5,9.640054899999999,14.5L14.3599453,14.5Q15.0392785,14.5,15.519639,14.0196393Q16,13.539278,16,12.859945100000001L16,12.6347365Q16,12.1855252,15.729486900000001,11.82689762Q15.4589734,11.46827018,15.0270457,11.34486246Q12,10.47999233,8.972953799999999,11.34486246Q8.541026182,11.46827033,8.27051306,11.8268978Q8,12.1855251,8,12.6347365ZM9.18746769,13.3125322Q8.99999991,13.1250644,8.99999991,12.8599452L9,12.6347365Q9,12.3771507,9.24767488,12.306386400000001Q11.9999998,11.52000803,14.7523246,12.306386400000001Q14.999999500000001,12.3771507,14.999999500000001,12.6347365L14.999999500000001,12.859945100000001Q14.999999500000001,13.1250646,14.8125319,13.3125322Q14.6250639,13.5000002,14.3599453,13.5000002L9.640054899999999,13.5000002Q9.37493563,13.5000002,9.18746769,13.3125322Z" fill-rule="evenodd" fill="#191C1E" fill-opacity="1"/></g></svg>