<svg xmlns="http://www.w3.org/2000/svg" xmlns:xlink="http://www.w3.org/1999/xlink" fill="none" version="1.1" width="20" height="20" viewBox="0 0 20 20"><defs><clipPath id="master_svg0_49_08305"><rect x="-0.8999999761581421" y="-0.8999999761581421" width="21.799999952316284" height="21.799999952316284" rx="0"/></clipPath></defs><g clip-path="url(#master_svg0_49_08305)"><path d="M3.2764704,10.6861134L1.5831663599999999,12.818425Q0.8415775,13.752275,1.36008325,14.826138Q1.87858802,15.9,3.0710762,15.9L16.928924000000002,15.9Q18.121412,15.9,18.639917,14.826137Q19.158421,13.752275,18.416832,12.818423L16.72353,10.6861153L16.72353,6.8235292Q16.72353,4.0385525,14.754253,2.0692760999999997Q12.784977,0.10000001999999997,10,0.10000043999999997Q7.2150226,0.10000032000000003,5.2457466,2.0692760999999997Q3.2764704,4.0385518000000005,3.2764704,6.8235292L3.2764704,10.6861134ZM4.8812701999999994,11.559693Q4.9760702000000006,11.440315,5.0262704,11.296377Q5.0764704,11.15244,5.0764704,11L5.0764704,6.8235292Q5.0764704,4.7841363,6.5185385,3.3420684Q7.9606071,1.90000027,10,1.90000039Q12.039392,1.89999998,13.481461,3.3420682Q14.92353,4.7841372,14.92353,6.8235292L14.92353,11Q14.92353,11.15244,14.973729,11.296377Q15.02393,11.440315,15.11873,11.559693L17.007235,13.937811Q17.046267,13.986961,17.018976,14.04348Q16.991685,14.099999,16.928924000000002,14.099999L3.0710762,14.099999Q3.0083134,14.099999,2.9810236000000003,14.04348Q2.9537348000000003,13.986962,2.9927645,13.937815L4.8812701999999994,11.559693Z" fill-rule="evenodd" fill="#191C1E" fill-opacity="1"/><path d="M10.0000002,19.5830464Q11.8318648,19.5830464,13.1680174,18.10311955Q13.2274189,18.03732562,13.2728438,17.96120712Q13.3182688,17.88508862,13.347971000000001,17.80157074Q13.3776727,17.71805288,13.390510599999999,17.63034521Q13.403348399999999,17.542637512,13.398829,17.454110563Q13.394309,17.36558361,13.3726053,17.27963942Q13.3509016,17.19369525,13.3128481,17.11363661Q13.2747951,17.03357801,13.2218542,16.96248156Q13.1689138,16.89138508,13.1031199,16.83198297Q12.970243499999999,16.71201509,12.8015714,16.65202892Q12.6328993,16.5920428,12.4541106,16.60117072Q12.275322899999999,16.61029869,12.113637,16.68715113Q11.9519515,16.76400363,11.831983600000001,16.89688045Q11.031907799999999,17.78304657,10.0000002,17.78304657Q8.968092200000001,17.78304657,8.16801721,16.89688057Q8.10861504,16.83108664,8.03751862,16.77814573Q7.96642217,16.72520483,7.88636357,16.68715131Q7.80630496,16.6490978,7.72036077,16.62739414Q7.6344166,16.60569048,7.545889646,16.60117078Q7.457362697,16.59665108,7.36965501,16.6094889Q7.28194731,16.62232679,7.19842944,16.65202892Q7.11491156,16.68173099,7.03879309,16.72715586Q6.96267456,16.77258074,6.89688057,16.83198279Q6.83108664,16.89138496,6.77814573,16.96248138Q6.72520483,17.03357783,6.68715131,17.11363643Q6.6490978,17.19369504,6.62739414,17.27963923Q6.60569048,17.3655834,6.60117078,17.454110354Q6.59665108,17.542637303,6.6094889,17.63034499Q6.62232679,17.71805269,6.65202892,17.80157056Q6.68173099,17.88508844,6.72715586,17.96120691Q6.77258074,18.03732544,6.83198279,18.10311943Q8.16813523,19.5830464,10.0000002,19.5830464Z" fill-rule="evenodd" fill="#191C1E" fill-opacity="1"/></g></svg>