<svg xmlns="http://www.w3.org/2000/svg" xmlns:xlink="http://www.w3.org/1999/xlink" fill="none" version="1.1" width="20" height="20" viewBox="0 0 20 20"><path d="M0.60000002,6.6278238Q0.60000002,4.3037719,0.91608113,3.68342751Q1.34386151,2.84386149,2.18342745,2.4160811300000002Q2.8037716,2.10000002,5.1278238,2.10000002L14.872176,2.10000002Q17.196229000000002,2.10000002,17.816572,2.41608179Q18.656136,2.84385958,19.083918,3.6834276299999997Q19.4,4.3037721,19.4,6.6278238L19.4,13.372176Q19.4,15.696229,19.083918,16.316572999999998Q18.656136,17.15614,17.81657,17.58392Q17.196227999999998,17.9,14.872176,17.9L5.1278238,17.9Q2.8037723999999997,17.9,2.18342835,17.58392Q1.343863,17.156139,0.91608149,16.316572999999998Q0.60000002,15.696229,0.60000002,13.372176L0.60000002,6.6278238ZM2.39999998,6.6278238L2.39999998,13.372176Q2.39999998,15.264087,2.5198925,15.499388Q2.682155,15.817846,3.0006098000000003,15.980106Q3.2359141,16.099999,5.1278238,16.099999L14.872176,16.099999Q16.764085,16.099999,16.999389,15.980106Q17.317844,15.817846,17.480106,15.499388Q17.599998,15.264087,17.599998,13.372176L17.599998,6.6278238Q17.599998,4.735913,17.480106,4.5006105000000005Q17.317844,4.1821538,16.999388,4.0198922Q16.764087,3.89999998,14.872176,3.89999998L5.1278238,3.89999998Q3.2359136,3.89999998,3.0006106,4.0198927Q2.6821544,4.1821543000000005,2.5198929000000003,4.5006106Q2.39999998,4.7359135000000006,2.39999998,6.6278238Z" fill="#191C1E" fill-opacity="1"/><path d="M12.364401,11.3379187375L19.019014,6.6405444775L17.980984,5.1700023975L11.3263712,9.8673765375Q10.4649801,10.4754171375,10.264699,10.5249719375Q10,10.5904660375,9.7353029,10.5249719375Q9.535018,10.4754157375,8.6736293,9.8673758375L2.01901484,5.1700023975L0.98098516,6.6405444775L7.6355982,11.3379173375Q8.7737856,12.141345537500001,9.302966600000001,12.2722802375Q9.9999981,12.4447465375,10.697032,12.2722802375Q11.2262115,12.141346437500001,12.364401,11.3379187375Z" fill-rule="evenodd" fill="#191C1E" fill-opacity="1"/></svg>