<svg xmlns="http://www.w3.org/2000/svg" xmlns:xlink="http://www.w3.org/1999/xlink" fill="none" version="1.1" width="8" height="12" viewBox="0 0 9 13"><path d="M5.3404903,7.9164028L6.9527593,11.312819C7.0435047,11.505274,6.9599915,11.729872,6.7638993,11.818933L5.3549552,12.464066C5.1588626,12.553127,4.9301567,12.471164,4.8392749,12.278709L3.1908443,8.8074265L1.16087323,10.799607C1.00831151,10.949339,0.76500431,10.949339,0.61257906,10.799607C0.539982624,10.728357,0.5,10.632063,0.5,10.528805L0.5,0.88129333C0.5,0.67102619,0.67425874,0.5,0.88850012,0.5C0.98661447,0.5,1.07736003,0.535624877,1.1499564599999998,0.599776439L8.372483299999999,7.0468078C8.5322771,7.1893072,8.5431938,7.4281011,8.3978648,7.5849309C8.3325009,7.6561804,8.238071,7.7025194,8.1400928,7.7096176L5.3404903,7.9164028Z" fill="#000000" fill-opacity="1"/><path d="M8.1762209,8.2083106L8.1769233,8.2082586Q8.5281172,8.1825767,8.7646093,7.9247813Q9.0161581,7.6533265,8.9990501,7.2871594Q8.9819117,6.9203424,8.7054434,6.6737962L1.4810454800000001,0.22510317000000002Q1.22630996,0,0.88850015,0Q0.523449015,0,0.26368148999999996,0.25494874Q0,0.513738861,0,0.8812933000000001L0,10.528805Q2.9999999984209325e-8,10.89897,0.26219234,11.1563Q0.522397965,11.411905,0.8866749700000001,11.411905Q1.25082177,11.411905,1.5110893,11.156467L3.0402098,9.6558123L4.387150999999999,12.492213Q4.5436549,12.823633,4.8886704,12.947532Q5.2298317,13.070047,5.5631132,12.918675L6.9706645,12.274179Q7.3068466,12.12149,7.4344034,11.779285Q7.5629249,11.434492,7.4044504,11.098403L6.1051493,8.361285200000001L8.1762209,8.2083106ZM7.8283105,7.2312841L1,1.13613397L1,10.2569304L3.3414788,7.9590402L5.2438269,11.965028L6.4473038,11.413978L4.5758309,7.4715204L7.8283105,7.2312841Z" fill-rule="evenodd" fill="#FFFFFF" fill-opacity="1"/></svg>