<svg xmlns="http://www.w3.org/2000/svg" xmlns:xlink="http://www.w3.org/1999/xlink" fill="none" version="1.1" width="8" height="12" viewBox="0 0 15 19.0023193359375"><defs><filter id="master_svg0_0_16412" filterUnits="objectBoundingBox" color-interpolation-filters="sRGB" x="-0.5" y="-0.25" width="2" height="1.6666666666666667"><feFlood flood-opacity="0" result="BackgroundImageFix"/><feColorMatrix in="SourceAlpha" type="matrix" values="0 0 0 0 0 0 0 0 0 0 0 0 0 0 0 0 0 0 127 0"/><feOffset dy="1" dx="0"/><feGaussianBlur stdDeviation="1"/><feColorMatrix type="matrix" values="0 0 0 0 0 0 0 0 0 0 0 0 0 0 0 0 0 0 0.30000001192092896 0"/><feBlend mode="normal" in2="BackgroundImageFix" result="effect1_dropShadow"/><feBlend mode="normal" in="SourceGraphic" in2="effect1_dropShadow" result="shape"/></filter></defs><g filter="url(#master_svg0_0_16412)"><path d="M8.340490299999999,9.9164028L9.9527593,13.312819C10.0435047,13.505274,9.959991500000001,13.729872,9.7638993,13.818933L8.3549552,14.464066C8.158862599999999,14.553127,7.9301567,14.471164,7.8392749,14.278709L6.1908443,10.8074265L4.16087323,12.799607C4.00831151,12.949339,3.76500431,12.949339,3.61257906,12.799607C3.539982624,12.728357,3.5,12.632063,3.5,12.528805L3.5,2.88129333C3.5,2.67102619,3.67425874,2.5,3.88850012,2.5C3.98661447,2.5,4.07736003,2.535624877,4.14995646,2.599776439L11.372483299999999,9.0468078C11.5322771,9.1893072,11.5431938,9.4281011,11.3978648,9.5849309C11.3325009,9.6561804,11.238071,9.7025194,11.1400928,9.7096176L8.340490299999999,9.9164028Z" fill="#000000" fill-opacity="1"/><path d="M11.1762209,10.2083106L11.1769233,10.2082586Q11.5281172,10.1825767,11.7646093,9.9247813Q12.0161581,9.6533265,11.9990501,9.2871594Q11.9819117,8.9203424,11.7054434,8.6737962L4.48104548,2.22510317Q4.22630996,2,3.88850015,2Q3.523449015,2,3.26368149,2.25494874Q3,2.513738861,3,2.8812933L3,12.528805Q3.00000003,12.89897,3.26219234,13.1563Q3.522397965,13.411905,3.88667497,13.411905Q4.25082177,13.411905,4.5110893,13.156467L6.0402097999999995,11.6558123L7.387150999999999,14.492213Q7.5436549,14.823633,7.8886704,14.947532Q8.2298317,15.070047,8.5631132,14.918675L9.9706645,14.274179Q10.3068466,14.12149,10.4344034,13.779285Q10.562924899999999,13.434492,10.4044504,13.098403L9.1051493,10.361285200000001L11.1762209,10.2083106ZM10.8283105,9.2312841L4,3.13613397L4,12.2569304L6.3414788,9.9590402L8.2438269,13.965028L9.4473038,13.413978L7.5758309,9.4715204L10.8283105,9.2312841Z" fill-rule="evenodd" fill="#FFFFFF" fill-opacity="1"/></g></svg>