<svg xmlns="http://www.w3.org/2000/svg" xmlns:xlink="http://www.w3.org/1999/xlink" fill="none" version="1.1" width="20" height="20" viewBox="0 0 20 20"><path d="M5.2000005,2.89999998L8.999999500000001,2.89999998Q9.0886412,2.89999992,9.175580499999999,2.88270664Q9.2625189,2.8654134300000003,9.3444138,2.83149147Q9.426308599999999,2.79756957,9.5000119,2.7483226099999998Q9.573715199999999,2.69907558,9.636395,2.63639605Q9.6990743,2.57371652,9.7483215,2.50001317Q9.7975683,2.42630985,9.831490500000001,2.34441507Q9.8654122,2.26252031,9.8827052,2.17558128Q9.899998700000001,2.088642262,9.899999099999999,2Q9.899998700000001,1.911357738,9.8827052,1.82441872Q9.8654118,1.73747969,9.831489999999999,1.65558493Q9.7975683,1.57369015,9.7483211,1.49998677Q9.6990738,1.42628348,9.6363945,1.36360395Q9.5737147,1.3009244199999999,9.5000114,1.2516774499999999Q9.426308200000001,1.2024304300000002,9.3444138,1.16850853Q9.2625189,1.13458657,9.175580499999999,1.1172933600000001Q9.0886412,1.10000008,8.999999500000001,1.10000002L5.2000005,1.10000002Q4.1858759,1.10000002,3.8051299,1.1318963800000001Q3.1198745,1.18930256,2.66670609,1.4242020800000001Q1.84838054,1.84838045,1.42420214,2.6667062Q1.1893026199999999,3.1198745,1.13189644,3.8051299Q1.1000001400000001,4.1858754000000005,1.1000001400000001,5.2000005L1.10000002,14.799999Q1.10000002,15.814124,1.13189644,16.19487Q1.18930256,16.880124000000002,1.42420149,17.333294000000002Q1.84838259,18.151623,2.66670698,18.575798Q3.1198736,18.810698,3.80513,18.868103Q4.1858809,18.9,5.2000005,18.9L8.999999500000001,18.9Q9.0886412,18.899998,9.175580499999999,18.882706Q9.2625189,18.865412,9.3444138,18.83149Q9.426308599999999,18.797567,9.5000119,18.74832Q9.573715199999999,18.699074,9.636395,18.636395Q9.6990743,18.573715,9.7483215,18.500011Q9.7975683,18.426308,9.831490500000001,18.344414Q9.8654122,18.26252,9.8827052,18.175581Q9.899998700000001,18.088642,9.899999099999999,18Q9.899998700000001,17.911357000000002,9.8827052,17.824417Q9.8654118,17.737478,9.831489999999999,17.655583Q9.7975683,17.573689,9.7483211,17.499986Q9.6990738,17.426282999999998,9.6363945,17.363604000000002Q9.5737147,17.300922999999997,9.5000114,17.251677Q9.426308200000001,17.202429000000002,9.3444138,17.168506999999998Q9.2625189,17.134585,9.175580499999999,17.117292Q9.0886412,17.099999,8.999999500000001,17.099999L5.2000005,17.099999Q3.7309457999999998,17.099999,3.4950627,16.977728Q3.1836767999999998,16.816322,3.0222713,16.504936999999998Q2.89999998,16.269050999999997,2.89999998,14.799999L2.9000000999999997,5.2000005Q2.9000000999999997,3.7309484,3.022271,3.4950635Q3.1836776,3.1836776,3.4950639,3.0222707Q3.7309487,2.89999998,5.2000005,2.89999998Z" fill-rule="evenodd" fill="#191C1E" fill-opacity="1"/><path d="M7.5,10.9L17.5,10.9Q17.588642,10.899999900000001,17.675581,10.8827066Q17.762520000000002,10.8654134,17.844414,10.8314915Q17.926309,10.7975695,18.000011999999998,10.7483225Q18.073715,10.6990755,18.136395,10.6363961Q18.199074,10.5737164,18.248322,10.5000131Q18.297567,10.426309700000001,18.331490000000002,10.34441495Q18.365412,10.26252019,18.382706,10.17558122Q18.4,10.08864224,18.4,10Q18.4,9.91135773,18.382706,9.82441872Q18.365412,9.73747969,18.331491,9.65558492Q18.297568,9.573690154,18.248322,9.499986808747Q18.199075,9.426283464,18.136395,9.36360392Q18.073715,9.30092439,18.000011999999998,9.25167739Q17.926309,9.2024304,17.844414,9.16850847Q17.762520000000002,9.13458657,17.675581,9.1172933Q17.588642,9.10000005,17.5,9.10000002L7.5,9.10000002Q7.411357738,9.10000005,7.32441872,9.11729333Q7.23747969,9.13458657,7.15558493,9.16850847Q7.07369015,9.20243043,6.99998677,9.25167742Q6.92628348,9.30092441,6.86360395,9.36360393Q6.80092442,9.426283479,6.75167745,9.499986816198Q6.70243043,9.573690161,6.66850853,9.65558492Q6.63458657,9.73747969,6.61729336,9.82441872Q6.60000008,9.91135773,6.6000000199999995,10Q6.60000008,10.08864224,6.61729336,10.17558122Q6.63458657,10.26252019,6.66850853,10.34441495Q6.70243043,10.426309700000001,6.75167739,10.5000131Q6.80092442,10.5737164,6.86360395,10.6363961Q6.92628348,10.6990755,6.99998683,10.7483225Q7.07369015,10.7975695,7.15558493,10.8314914Q7.23747969,10.8654133,7.32441872,10.8827066Q7.411357738,10.899999900000001,7.5,10.9Z" fill-rule="evenodd" fill="#191C1E" fill-opacity="1"/><path d="M12.86360395,6.63639605L16.8636041,10.6363959Q16.9262836,10.6990752,16.9999869,10.748322Q17.0736902,10.7975683,17.1555848,10.831490500000001Q17.237479399999998,10.8654127,17.3244185,10.882706200000001Q17.4113574,10.899999600000001,17.4999998,10.899999600000001Q17.5886416,10.899999600000001,17.675581,10.882706200000001Q17.7625198,10.8654127,17.8444142,10.831491Q17.9263096,10.7975688,18.0000129,10.748322Q18.0737162,10.6990752,18.1363959,10.6363959Q18.1990752,10.5737162,18.248322,10.5000129Q18.297568300000002,10.4263096,18.3314905,10.3444147Q18.3654127,10.2625198,18.3827062,10.175580499999999Q18.3999996,10.088641599999999,18.3999996,9.9999998Q18.3999996,9.9113574,18.3827062,9.8244183Q18.3654127,9.7374794,18.331491,9.6555848Q18.2975688,9.5736902,18.248322,9.4999869Q18.1990752,9.4262836,18.1363959,9.3636041L14.13639605,5.36360395Q14.07371652,5.30092442,14.00001317,5.25167745Q13.92630982,5.20243049,13.84441504,5.16850859Q13.76252028,5.13458669,13.67558128,5.11729342Q13.588642254,5.10000014,13.5,5.10000014Q13.411357746,5.10000014,13.32441872,5.11729342Q13.23747972,5.13458669,13.15558496,5.16850859Q13.07369018,5.20243049,12.99998689,5.25167751Q12.92628348,5.30092442,12.86360395,5.36360395Q12.80092442,5.42628348,12.75167745,5.49998683Q12.70243049,5.57369018,12.66850859,5.65558496Q12.63458669,5.73747972,12.61729342,5.82441872Q12.60000014,5.911357746,12.60000014,6Q12.60000014,6.088642254,12.61729342,6.17558128Q12.63458669,6.26252028,12.66850859,6.34441504Q12.70243049,6.42630982,12.75167751,6.50001311Q12.80092442,6.57371652,12.86360395,6.63639605Z" fill-rule="evenodd" fill="#191C1E" fill-opacity="1"/><g transform="matrix(1,0,0,-1,0,28)"><path d="M12.86360395,14.63639605L16.8636041,18.6363959Q16.9262836,18.6990752,16.9999869,18.748322Q17.0736902,18.797568300000002,17.1555848,18.8314905Q17.237479399999998,18.8654127,17.3244185,18.8827062Q17.4113574,18.8999996,17.4999998,18.8999996Q17.5886416,18.8999996,17.675581,18.8827062Q17.7625198,18.8654127,17.8444142,18.831491Q17.9263096,18.7975688,18.0000129,18.748322Q18.0737162,18.6990752,18.1363959,18.6363959Q18.1990752,18.5737162,18.248322,18.5000129Q18.297568300000002,18.4263096,18.3314905,18.3444147Q18.3654127,18.2625198,18.3827062,18.1755805Q18.3999996,18.0886416,18.3999996,17.9999998Q18.3999996,17.9113574,18.3827062,17.8244183Q18.3654127,17.737479399999998,18.331491,17.6555848Q18.2975688,17.5736902,18.248322,17.4999869Q18.1990752,17.4262836,18.1363959,17.3636041L14.13639605,13.36360395Q14.07371652,13.30092442,14.00001317,13.25167745Q13.92630982,13.20243049,13.84441504,13.16850859Q13.76252028,13.13458669,13.67558128,13.11729342Q13.588642254,13.10000014,13.5,13.10000014Q13.411357746,13.10000014,13.32441872,13.11729342Q13.23747972,13.13458669,13.15558496,13.16850859Q13.07369018,13.20243049,12.99998689,13.25167751Q12.92628348,13.30092442,12.86360395,13.36360395Q12.80092442,13.42628348,12.75167745,13.49998683Q12.70243049,13.57369018,12.66850859,13.65558496Q12.63458669,13.73747972,12.61729342,13.82441872Q12.60000014,13.911357746,12.60000014,14Q12.60000014,14.088642254,12.61729342,14.17558128Q12.63458669,14.26252028,12.66850859,14.34441504Q12.70243049,14.42630982,12.75167751,14.50001311Q12.80092442,14.57371652,12.86360395,14.63639605Z" fill-rule="evenodd" fill="#191C1E" fill-opacity="1"/></g></svg>