<svg xmlns="http://www.w3.org/2000/svg" xmlns:xlink="http://www.w3.org/1999/xlink" fill="none" version="1.1" width="18" height="18" viewBox="0 0 18 18"><defs><clipPath id="master_svg0_56_12913"><rect x="0" y="0" width="18" height="18" rx="0"/></clipPath></defs><g clip-path="url(#master_svg0_56_12913)"><path d="M12.407137875,3.75C13.976128875,3.75,15.248046875,5.055836,15.248046875,6.6666663L15.248046875,11.3333321C15.248046875,12.9441643,13.976128875,14.25,12.407137875,14.25L5.588955674999999,14.25C4.019965275,14.25,2.748046875,12.9441643,2.748046875,11.3333321L2.748046875,6.6666663C2.748046875,5.055836,4.019965275,3.75,5.588955674999999,3.75L12.407137875,3.75ZM7.293501375,7.25L7.293501375,10.75C7.293662575,10.9600153,7.403773275,11.1537299,7.581792875,11.2571859C7.759812875,11.360641000000001,7.978257675,11.3578653,8.153727974999999,11.2499161L10.994637475,9.499916599999999C11.361821175,9.273240600000001,11.361821175,8.7267609,10.994637475,8.5000839L8.153727974999999,6.7500844C7.978257675,6.6421356,7.759812875,6.6393591999999995,7.581792875,6.7428148C7.403773275,6.846269400000001,7.293662575,7.0399845,7.293501375,7.25Z" fill="#1947FF" fill-opacity="1" style="mix-blend-mode:passthrough"/></g></svg>