<svg xmlns="http://www.w3.org/2000/svg" xmlns:xlink="http://www.w3.org/1999/xlink" fill="none" version="1.1" width="16" height="16" viewBox="0 0 16 16"><defs><clipPath id="master_svg0_32_10085"><rect x="-0.6000000238418579" y="-0.6000000238418579" width="17.200000047683716" height="17.200000047683716" rx="0"/></clipPath></defs><g clip-path="url(#master_svg0_32_10085)"><g transform="matrix(0,1,-1,0,13.5,-5.5)"><path d="M13.924264,8.424264L17.924264,4.4242640699999995Q17.9660501,4.3824777,17.998880399999997,4.33334211Q18.0317116,4.28420654,18.0543261,4.22961004Q18.0769405,4.17501353,18.088469500000002,4.11705418Q18.099998499999998,4.059094839,18.099998499999998,4Q18.099998499999998,3.940905161,18.0884705,3.88294582Q18.0769405,3.82498647,18.054327,3.77038996Q18.0317116,3.71579346,17.9988813,3.66665787Q17.9660501,3.6175223,17.924264,3.57573593Q17.8398724,3.49134457,17.729609500000002,3.44567227Q17.6193466,3.39999998,17.4999995,3.39999998Q17.380652,3.39999998,17.2703896,3.44567227Q17.160127199999998,3.49134457,17.075736,3.57573593L13.5,7.151472099999999L9.92426407,3.57573593Q9.8824777,3.53394958,9.83334211,3.50111824Q9.78420654,3.46828693,9.72961004,3.44567233Q9.67501353,3.42305773,9.61705418,3.41152894Q9.559094839,3.4000000999999997,9.5,3.40000004Q9.440905161,3.4000000999999997,9.38294582,3.41152889Q9.32498647,3.42305773,9.27038996,3.44567233Q9.21579346,3.46828693,9.16665787,3.50111827Q9.1175223,3.53394958,9.07573593,3.57573593Q9.03394958,3.6175223,9.00111824,3.6666578899999998Q8.96828693,3.71579346,8.94567233,3.77038996Q8.92305773,3.82498647,8.91152894,3.88294582Q8.9000001,3.940905161,8.90000004,4Q8.9000001,4.059094839,8.91152889,4.11705418Q8.92305773,4.17501353,8.94567233,4.22961004Q8.96828693,4.28420654,9.00111827,4.33334213Q9.03394958,4.3824777,9.07573593,4.4242640699999995L13.075736,8.424264Q13.1175222,8.4660501,13.1666579,8.4988813Q13.215793099999999,8.531712500000001,13.2703898,8.554327Q13.3249865,8.5769415,13.3829458,8.5884705Q13.4409051,8.5999994,13.5,8.5999994Q13.5590944,8.5999994,13.6170535,8.5884705Q13.675012599999999,8.5769415,13.729609499999999,8.554327Q13.7842064,8.531712500000001,13.8333421,8.4988813Q13.8824778,8.4660501,13.924264,8.424264Z" fill-rule="evenodd" fill="#C0C4CC" fill-opacity="1"/></g></g></svg>