<svg xmlns="http://www.w3.org/2000/svg" xmlns:xlink="http://www.w3.org/1999/xlink" fill="none" version="1.1" width="16" height="16" viewBox="0 0 16 16"><defs><clipPath id="master_svg0_32_13806"><rect x="0" y="0" width="16" height="16" rx="0"/></clipPath></defs><g clip-path="url(#master_svg0_32_13806)"><path d="M14.4113326,5.0833819708875C14.2821796,5.0684658681875,14.1514843,5.0916388831875,14.0353332,5.1500485761875L11,6.6667153921875L11,9.333382092187499L14.0353332,10.8500480921875C14.477932,11.0712179921875,14.9987464,10.7501616921875,15,10.2553815921875L15,5.7447150921875C14.9996173,5.4069865621875,14.7467437,5.1228965151875,14.4113326,5.0833819708875Z" fill="#191C1E" fill-opacity="1"/><g><path d="M1.33349609375,5.3333740234375C1.33349609375,4.2367073934375,2.33329248375,3.3333740234375,3.54706739375,3.3333740234375L9.44992449375,3.3333740234375C10.66369919375,3.3333740234375,11.66349609375,4.2367073934375,11.66349609375,5.3333740234375L11.66349609375,10.6667075234375C11.66349609375,11.7633743234375,10.66369919375,12.6667080234375,9.44992449375,12.6667080234375L3.54706739375,12.6667080234375C2.33329248375,12.6667080234375,1.33349609375,11.7633743234375,1.33349609375,10.6667075234375L1.33349609375,5.3333740234375ZM5.44241429375,9.9555254234375Q5.49255509375,9.9811740234375,5.54871179375,9.9768896234375Q5.60486839375,9.972604723437499,5.65053749375,9.9396462234375L8.10877709375,8.1655645234375Q8.14784859375,8.1373663234375,8.16979219375,8.094469023437501Q8.19173579375,8.0515713234375,8.19173579375,8.0033874234375Q8.19173579375,7.9552030234375,8.16979219375,7.9123053234375Q8.14784859375,7.8694076234375,8.10877709375,7.8412103234375L5.65053749375,6.0671286234375Q5.60486839375,6.0341701234375,5.54871179375,6.0298853234375Q5.49255469375,6.0256006234375,5.44241429375,6.0512492234375Q5.39227389375,6.0768981234375,5.36288549375,6.1249420234375Q5.33349609375,6.1729860234375,5.33349609375,6.2293057234375L5.33349609375,9.7774691234375Q5.33349609375,9.833789823437499,5.36288499375,9.8818335234375Q5.39227389375,9.9298773234375,5.44241429375,9.9555254234375Z" fill-rule="evenodd" fill="#191C1E" fill-opacity="1"/></g></g></svg>