<svg xmlns="http://www.w3.org/2000/svg" xmlns:xlink="http://www.w3.org/1999/xlink" fill="none" version="1.1" width="12" height="0.75" viewBox="0 0 13.200000047683716 1.9500000476837158"><path d="M0.6000000238418579,1.5750000438418579L12.600000023841858,1.5750000438418579Q12.659094023841858,1.5749999838418578,12.717054023841857,1.5634711338418579Q12.775013023841858,1.551942293841858,12.829609023841858,1.529327693841858Q12.884206023841857,1.5067130938418578,12.933342023841858,1.4738817838418579Q12.982478023841859,1.441050473841858,13.024264023841859,1.399264093841858Q13.066051023841858,1.3574777238418578,13.098882023841858,1.308342153841858Q13.131713023841858,1.2592065338418579,13.154328023841858,1.2046100538418578Q13.176942023841859,1.150013563841858,13.188472023841857,1.0920541838418578Q13.200000023841858,1.0340948738418578,13.200000023841858,0.9750000238418579Q13.200000023841858,0.915905173841858,13.188470023841857,0.8579458038418579Q13.176942023841859,0.799986453841858,13.154328023841858,0.7453899338418579Q13.131713023841858,0.6907934318418579,13.098882023841858,0.6416578738418579Q13.066051023841858,0.5925223138418579,13.024265023841858,0.5507359508418579Q12.982479023841858,0.5089495928418579,12.933343023841857,0.4761182638418579Q12.884206023841857,0.4432869238418579,12.829609023841858,0.4206723138418579Q12.775013023841858,0.3980577038418579,12.717053023841858,0.3865288538418579Q12.659094023841858,0.3750000138418579,12.600000023841858,0.37500000384185794L0.6000000238418579,0.37500000384185794Q0.5409051808418579,0.3750000138418579,0.4829458338418579,0.3865288538418579Q0.4249864838418579,0.3980577038418579,0.3703899638418579,0.4206723138418579Q0.3157934538418579,0.4432869238418579,0.2666578938418579,0.4761182638418579Q0.21752232384185793,0.5089495928418579,0.17573595384185792,0.5507359508418579Q0.1339496038418579,0.5925223138418579,0.1011182638418579,0.6416578738418579Q0.0682869538418579,0.6907934318418579,0.04567235384185786,0.7453899338418579Q0.0230577038418579,0.799986453841858,0.011528853841857867,0.8579458038418579Q3.8418579428878274e-9,0.915905173841858,3.8418579428878274e-9,0.9750000238418579Q3.8418579428878274e-9,1.0340948738418578,0.011528853841857867,1.0920541838418578Q0.0230577038418579,1.150013563841858,0.04567235384185786,1.2046100538418578Q0.0682869538418579,1.2592065338418579,0.10111829384185789,1.308342103841858Q0.1339496038418579,1.3574777238418578,0.17573595384185792,1.399264093841858Q0.21752232384185793,1.441050473841858,0.2666578938418579,1.473881843841858Q0.3157934538418579,1.5067131538418579,0.3703899638418579,1.529327753841858Q0.4249864838418579,1.551942343841858,0.4829458338418579,1.5634711338418579Q0.5409051808418579,1.5749999838418578,0.6000000238418579,1.5750000438418579Z" fill-rule="evenodd" fill="#99A0AC" fill-opacity="1"/></svg>