<svg xmlns="http://www.w3.org/2000/svg" xmlns:xlink="http://www.w3.org/1999/xlink" fill="none" version="1.1" width="1670" height="942" viewBox="0 0 1670 942"><defs><mask id="master_svg0_32_09338" style="mask-type:luminance" maskUnits="userSpaceOnUse" x="0" y="0" width="1670" height="942"><path d="M0 18C1.962109585316772e-15 8.058874503045717 8.05887450304572 0 18 0L1652 0C1661.9411254969543 0 1670 8.05887450304572 1670 18L1670 924C1670 933.9411254969543 1661.9411254969543 942 1652 942L18 942C8.05887450304572 942 0 933.9411254969543 0 924Z" fill="#FFFFFF" fill-opacity="1"/></mask></defs><g mask="url(#master_svg0_32_09338)"><path d="M0 18C1.962109585316772e-15 8.058874503045717 8.05887450304572 0 18 0L1652 0C1661.9411254969543 0 1670 8.05887450304572 1670 18L1670 924C1670 933.9411254969543 1661.9411254969543 942 1652 942L18 942C8.05887450304572 942 0 933.9411254969543 0 924Z" fill="#FFFFFF" fill-opacity="0.6000000238418579"/></g></svg>