<svg xmlns="http://www.w3.org/2000/svg" xmlns:xlink="http://www.w3.org/1999/xlink" fill="none" version="1.1" width="16" height="16" viewBox="0 0 16 16"><defs><clipPath id="master_svg0_32_10533"><rect x="-0.6000000238418579" y="-0.6000000238418579" width="17.200000047683716" height="17.200000047683716" rx="0"/></clipPath></defs><g clip-path="url(#master_svg0_32_10533)"><path d="M4.879029561853027,2.1856966269274904Q2.664992391853027,3.3752772069274903,1.8030524518530273,5.73623510692749Q1.7621233118530273,5.84834480692749,1.7672123318530273,5.967583606927491Q1.7723013418530273,6.0868230069274905,1.8226337418530274,6.19503780692749Q1.8729661218530274,6.30325220692749,1.9608791768530274,6.38396830692749Q2.0487922243530274,6.46468450692749,2.1609019918530272,6.5056138069274905Q2.2730117918530275,6.54654260692749,2.3922506618530273,6.54145380692749Q2.511489511853027,6.536365006927491,2.619704361853027,6.48603250692749Q2.727919281853027,6.43569990692749,2.8086354718530275,6.347786906927491Q2.8893516018530274,6.25987390692749,2.9302807418530272,6.14776420692749Q3.635504161853027,4.216071606927491,5.4469895618530275,3.24277820692749Q7.258473861853028,2.26948508692749,9.258503961853027,2.74767201692749Q11.258530661853028,3.2258588069274903,12.433866961853028,4.913271406927491Q13.609203961853026,6.60068460692749,13.364410961853027,8.64246080692749Q13.119617961853027,10.684237006927491,11.578708661853028,12.04599350692749Q10.037799861853028,13.407749506927491,7.981417661853027,13.399603506927491Q5.925035461853027,13.39145850692749,4.394962761853027,12.01753650692749Q2.8648904518530274,10.64361620692749,2.6362807718530274,8.59996460692749Q2.6297112118530275,8.54123590692749,2.6118104418530272,8.484917206927491Q2.5939097418530275,8.42859890692749,2.5653657918530275,8.37685440692749Q2.5368218418530275,8.32511040692749,2.498731611853027,8.27992960692749Q2.4606413818530273,8.23474840692749,2.4144686718530273,8.19786690692749Q2.3682959118530276,8.160984506927491,2.3158150618530273,8.13381910692749Q2.2633342118530275,8.10665370692749,2.2065620718530274,8.09024860692749Q2.1497899218530274,8.07384350692749,2.0909081768530275,8.06883000692749Q2.0320264399530275,8.06381610692749,1.9732979018530274,8.070385906927491Q1.8546902118530273,8.083653906927491,1.7501884118530273,8.14130110692749Q1.6456865918530275,8.19894840692749,1.5712001318530273,8.29219870692749Q1.4967137618530273,8.38544800692749,1.4635825718530273,8.500104406927491Q1.4304513318530274,8.61476090692749,1.4437191518530272,8.73336840692749Q1.7231312718530274,11.23116540692749,3.5932195618530276,12.91040150692749Q5.463308561853028,14.58963950692749,7.9766635618530275,14.59959450692749Q10.490019761853027,14.60955050692749,12.373352961853028,12.945182506927491Q14.256686961853028,11.280813706927491,14.555878961853027,8.785308806927489Q14.855069961853028,6.289803006927491,13.418547961853028,4.22741050692749Q11.982026061853027,2.16501748692749,9.537546661853028,1.5805666469274902Q7.093066661853027,0.9961160069274901,4.879029561853027,2.1856966269274904Z" fill-rule="evenodd" fill="#000000" fill-opacity="1"/><path d="M2,6.600666764486695L5.3333333,6.600666764486695Q5.3924278999999995,6.600666564486694,5.450387,6.589137564486695Q5.5083462999999995,6.577608364486695,5.5629427,6.554993864486694Q5.6175391999999995,6.532379364486694,5.6666749,6.499548164486694Q5.715810299999999,6.466716764486694,5.7575970000000005,6.4249305644866945Q5.799383199999999,6.383144164486694,5.8322146,6.334008464486694Q5.8650458,6.284872764486694,5.8876605,6.230276364486695Q5.910275,6.175679964486694,5.9218042,6.117720564486694Q5.9333332,6.059761264486694,5.9333334,6.000666664486694Q5.9333332,5.941571464486694,5.9218042,5.8836123644866944Q5.910275,5.8256528644866945,5.8876605,5.771056364486695Q5.8650459999999995,5.716459764486695,5.8322148,5.667324064486694Q5.7993834,5.618188664486695,5.7575972,5.576402464486694Q5.7158108,5.534615764486695,5.6666751,5.5017845644866945Q5.6175394,5.468953164486694,5.562943000000001,5.446338664486694Q5.508346599999999,5.4237241644866945,5.4503872,5.412195464486695Q5.3924278999999995,5.400666664486694,5.3333333,5.400666664486694L2.60000002,5.400666664486694L2.60000002,2.6673333644866943Q2.60000002,2.6082385214866943,2.58847117,2.550279174486694Q2.57694232,2.492319824486694,2.55432767,2.437723304486694Q2.53171307,2.3831267944866945,2.49888173,2.333991234486694Q2.46605042,2.2848556644866944,2.42426407,2.2430692944866943Q2.3824777,2.201282944486694,2.33334213,2.168451604486694Q2.28420657,2.1356202944866944,2.22961006,2.113005694486694Q2.17501354,2.090391044486694,2.11705419,2.0788621944866943Q2.059094843,2.0673333444866944,2,2.0673333444866944Q1.940905157,2.0673333444866944,1.88294581,2.0788621944866943Q1.82498646,2.090391044486694,1.77038994,2.113005694486694Q1.71579343,2.1356202944866944,1.6666578699999999,2.1684516344866944Q1.6175223,2.201282944486694,1.57573593,2.2430692944866943Q1.53394958,2.2848556644866944,1.50111824,2.333991234486694Q1.46828693,2.3831267944866945,1.4456723299999998,2.437723304486694Q1.4230576799999999,2.492319824486694,1.41152883,2.550279174486694Q1.39999998,2.6082385214866943,1.39999998,2.6673333644866943L1.39999998,6.000666664486694Q1.39999998,6.059761264486694,1.41152883,6.117720364486694Q1.4230576799999999,6.175679664486694,1.4456723299999998,6.230276064486694Q1.46828693,6.284872564486694,1.50111827,6.334008264486695Q1.53394958,6.383143664486694,1.57573593,6.424930364486695Q1.6175223,6.466716564486694,1.6666578699999999,6.499547964486695Q1.71579343,6.532379164486694,1.77038994,6.554993864486694Q1.82498646,6.577608364486695,1.88294581,6.589137564486695Q1.940905157,6.600666564486694,2,6.600666764486695Z" fill-rule="evenodd" fill="#000000" fill-opacity="1"/></g></svg>