<svg xmlns="http://www.w3.org/2000/svg" xmlns:xlink="http://www.w3.org/1999/xlink" fill="none" version="1.1" width="8.34" height="8.33" viewBox="0 0 8.3359375 8.326171875"><g><path d="M0.6827889999999996,0.06407100000000021C0.7682160000000007,-0.02135700000000007,0.9067209999999992,-0.02135700000000007,0.9921483999999996,0.06407100000000021L4.9364781,4.0084004C5.0219054,4.0938272,5.0219054,4.2323322,4.9364781,4.3177595L0.9921483999999996,8.2620897C0.9067209999999992,8.347517,0.7682160000000007,8.347517,0.6827889999999996,8.2620897L0.06407100000000021,7.6433706C-0.02135700000000007,7.5579443,-0.02135700000000007,7.4194388,0.06407100000000021,7.3340119999999995L3.2350411,4.1631184L0.06407100000000021,0.9921483999999996C-0.02135700000000007,0.9067211000000004,-0.02135700000000007,0.7682161000000001,0.06407100000000021,0.6827888000000009L0.6827889999999996,0.06407100000000021ZM4.0187263,0.06407100000000021C4.1041536,-0.02135700000000007,4.2426581,-0.02135700000000007,4.3280854,0.06407100000000021L8.272415200000001,4.0084004C8.3578434,4.0938272,8.3578434,4.2323322,8.272415200000001,4.3177595L4.3280854,8.2620897C4.2426581,8.347517,4.1041536,8.347517,4.0187263,8.2620897L3.4000082000000003,7.6433706C3.3145809,7.5579443,3.3145809,7.4194388,3.4000082000000003,7.3340119999999995L6.5709786,4.1631184L3.4000082000000003,0.9921483999999996C3.3145809,0.9067211000000004,3.3145809,0.7682161000000001,3.4000082000000003,0.6827888000000009L4.0187263,0.06407100000000021Z" fill-rule="evenodd" fill="#000000" fill-opacity="1"/></g></svg>