<svg xmlns="http://www.w3.org/2000/svg" xmlns:xlink="http://www.w3.org/1999/xlink" fill="none" version="1.1" width="242" height="24" viewBox="0 0 242 24"><path d="M3.2000005,0L238.79999,0C239.9201,0,240.49281,0.0022675097,240.91911,0.2232364C241.28604,0.41343322,241.58656,0.71395695,241.77676,1.0808849C241.99774,1.5071766,242,2.0798936,242,3.2000005L242,20.799999C242,21.920107,241.99774,22.492823,241.77676,22.919115C241.58656,23.286043,241.28604,23.586567,240.91911,23.776764C240.49281,23.997732,239.9201,24,238.8,24L3.2000074,24C2.0798936,24,1.5071784,23.997732,1.0808849,23.776764C0.71395695,23.586567,0.41343322,23.286043,0.2232364,22.919115C0.0022675097,22.492821,0,21.920107,0,20.799999L0,3.1999998C0,2.0798936,0.002267465,1.5071785,0.2232364,1.0808849C0.41343322,0.71395695,0.71395695,0.41343322,1.0808849,0.2232364C1.5071785,0.002267465,2.0798936,0,3.2000005,0" fill-rule="evenodd" fill="#F5F6FA" fill-opacity="1"/></svg>