<svg xmlns="http://www.w3.org/2000/svg" xmlns:xlink="http://www.w3.org/1999/xlink" fill="none" version="1.1" width="112" height="24" viewBox="0 0 112 24"><path d="M3.2000005,0L108.8,0C109.9201,0,110.49282,0.0022675097,110.91911,0.2232364C111.28604,0.41343322,111.58656,0.71395695,111.77676,1.0808849C111.99773,1.5071766,112,2.0798936,112,3.2000005L112,20.799999C112,21.920107,111.99773,22.492823,111.77676,22.919115C111.58656,23.286043,111.28604,23.586567,110.91911,23.776764C110.49282,23.997732,109.9201,24,108.8,24L3.1999998,24C2.0798936,24,1.5071784,23.997732,1.0808849,23.776764C0.71395695,23.586567,0.41343322,23.286043,0.2232364,22.919115C0.0022675097,22.492821,0,21.920107,0,20.799999L0,3.1999998C0,2.0798936,0.002267465,1.5071785,0.2232364,1.0808849C0.41343322,0.71395695,0.71395695,0.41343322,1.0808849,0.2232364C1.5071785,0.002267465,2.0798936,0,3.2000005,0" fill-rule="evenodd" fill="#F5F6FA" fill-opacity="1"/></svg>