<svg xmlns="http://www.w3.org/2000/svg" xmlns:xlink="http://www.w3.org/1999/xlink" fill="none" version="1.1" width="282" height="244" viewBox="0 0 402 364"><defs><filter id="master_svg0_0_16077" filterUnits="objectBoundingBox" color-interpolation-filters="sRGB" x="-0.2127659574468085" y="-0.20491803278688525" width="1.425531914893617" height="1.4918032786885247"><feFlood flood-opacity="0" result="BackgroundImageFix"/><feColorMatrix in="SourceAlpha" type="matrix" values="0 0 0 0 0 0 0 0 0 0 0 0 0 0 0 0 0 0 127 0"/><feOffset dy="10" dx="0"/><feGaussianBlur stdDeviation="15"/><feColorMatrix type="matrix" values="0 0 0 0 0.7446419596672058 0 0 0 0 0.776922881603241 0 0 0 0 0.8737655878067017 0 0 0 0.4000000059604645 0"/><feBlend mode="normal" in2="BackgroundImageFix" result="effect1_dropShadow"/><feBlend mode="normal" in="SourceGraphic" in2="effect1_dropShadow" result="shape"/></filter></defs><path d="M72.800002,50L329.20001,50C333.68042,50,335.97128,50.0090700388,337.67645,50.89294559C339.14417,51.6537329,340.34625,52.8558278,341.10706,54.3235397C341.99094,56.0287066,342,58.3195744,342,62.800002L342,281.2C342,285.68042,341.99094,287.97128,341.10706,289.67645C340.34625,291.14417000000003,339.14417,292.34627,337.67645,293.10706C335.97128,293.99094,333.68042,294,329.20001,294L72.799999,294C68.3195744,294,66.0287137,293.99094,64.3235397,293.10706C62.8558278,292.34627,61.6537329,291.14417000000003,60.89294559,289.67645C60.0090700388,287.97128,59.99999999999985,285.68042,59.99999999999985,281.2L59.99999999999985,62.799996C59.99999999999985,58.3195744,60.00906986,56.028714199999996,60.89294559,54.3235397C61.6537329,52.8558278,62.8558278,51.6537329,64.3235397,50.89294559C66.0287142,50.00906986,68.3195744,50,72.800002,50" fill-rule="evenodd" fill="#FFFFFF" fill-opacity="1" filter="url(#master_svg0_0_16077)"/></svg>