<svg xmlns="http://www.w3.org/2000/svg" xmlns:xlink="http://www.w3.org/1999/xlink" fill="none" version="1.1" width="16" height="16" viewBox="0 0 16 16"><defs><clipPath id="master_svg0_32_14883"><rect x="0" y="0" width="16" height="16" rx="0"/></clipPath></defs><g clip-path="url(#master_svg0_32_14883)"><path d="M14.4113326,5.0833819708875C14.2821796,5.0684658681875,14.1514843,5.0916388831875,14.0353332,5.1500485761875L11,6.6667153921875L11,9.333382092187499L14.0353332,10.8500480921875C14.477932,11.0712179921875,14.9987464,10.7501616921875,15,10.2553815921875L15,5.7447150921875C14.9996173,5.4069865621875,14.7467437,5.1228965151875,14.4113326,5.0833819708875Z" fill="#191C1E" fill-opacity="1"/><g><path d="M1.33349609375,5.3333740234375C1.33349609375,4.2367073934375,2.33329248375,3.3333740234375,3.54706739375,3.3333740234375L9.44992449375,3.3333740234375C10.66369919375,3.3333740234375,11.66349609375,4.2367073934375,11.66349609375,5.3333740234375L11.66349609375,10.6667075234375C11.66349609375,11.7633743234375,10.66369919375,12.6667080234375,9.44992449375,12.6667080234375L3.54706739375,12.6667080234375C2.33329248375,12.6667080234375,1.33349609375,11.7633743234375,1.33349609375,10.6667075234375L1.33349609375,5.3333740234375ZM5.44241429375,9.9555564234375Q5.49255509375,9.9812050234375,5.54871179375,9.9769201234375Q5.60486839375,9.9726352234375,5.65053749375,9.9396767234375L8.10877709375,8.1655950234375Q8.14784859375,8.1373968234375,8.16979219375,8.0944996234375Q8.19173579375,8.0516014234375,8.19173579375,8.0034175234375Q8.19173579375,7.9552336234375,8.16979219375,7.9123358234375Q8.14784859375,7.8694381234375,8.10877709375,7.8412409234375L5.65053749375,6.0671592234375Q5.60486839375,6.0342004234375,5.54871179375,6.0299158234375Q5.49255469375,6.0256309234375,5.44241429375,6.0512798234375005Q5.39227389375,6.0769284234375,5.36288549375,6.1249723234375Q5.33349609375,6.1730165234375,5.33349609375,6.2293362234375L5.33349609375,9.7774997234375Q5.33349609375,9.8338198234375,5.36288499375,9.881864023437501Q5.39227389375,9.9299078234375,5.44241429375,9.9555564234375Z" fill-rule="evenodd" fill="#191C1E" fill-opacity="1"/></g></g></svg>