<svg xmlns="http://www.w3.org/2000/svg" xmlns:xlink="http://www.w3.org/1999/xlink" fill="none" version="1.1" width="28" height="28" viewBox="0 0 28 28"><defs><mask id="master_svg0_15_9854" style="mask-type:luminance" maskUnits="userSpaceOnUse" x="0" y="0" width="28" height="28"><path d="M0 8C4.90527396329193e-16 3.5817220013536524 3.5817220013536533 0 8 0L20 0C24.418277998646346 0 28 3.5817220013536533 28 8L28 20C28 24.418277998646346 24.418277998646346 28 20 28L8 28C3.5817220013536533 28 0 24.418277998646346 0 20Z" fill="#FFFFFF" fill-opacity="1"/></mask></defs><g mask="url(#master_svg0_15_9854)"><path d="M0 8C4.90527396329193e-16 3.5817220013536524 3.5817220013536533 0 8 0L20 0C24.418277998646346 0 28 3.5817220013536533 28 8L28 20C28 24.418277998646346 24.418277998646346 28 20 28L8 28C3.5817220013536533 28 0 24.418277998646346 0 20Z" fill="#E9EFFF" fill-opacity="1"/><path d="M7.30000001,10L7.30000001,18Q7.29999995,18.211944000000003,7.41756475,18.388289999999998Q7.45580804,18.445653999999998,7.50450778,18.494456Q7.55320752,18.543258,7.61049229,18.581621Q7.66777706,18.619984000000002,7.73144543,18.646435Q7.7951138,18.672884,7.86271901,18.686405999999998Q7.930324227,18.699925999999998,7.99926826358,18.699999Q8.068212301,18.700071,8.13584569,18.686692Q8.20347907,18.673312,8.26720268,18.646996Q8.3309263,18.620677999999998,8.3882913,18.582436Q9.5744334,17.7916737,11.0000005,17.7916737Q12.4255657,17.7916737,13.611709600000001,18.582436Q13.7880573,18.700001,14,18.700001Q14.068944,18.700001,14.1365628,18.68655Q14.2041821,18.673099999999998,14.2678781,18.646715Q14.331574,18.620331,14.3888988,18.582027Q14.4462233,18.543723999999997,14.4949741,18.494974Q14.543725,18.446222,14.5820279,18.388897999999998Q14.6203308,18.331573,14.6467147,18.267878Q14.6730986,18.204182,14.6865487,18.136561999999998Q14.6999993,18.068944000000002,14.6999998,18L14.6999998,10Q14.6999998,9.9135703,14.678977,9.8297362Q14.657954199999999,9.745902300000001,14.617171800000001,9.6696995Q14.576389299999999,9.5934967,14.5182962,9.529502Q14.4602041,9.4655074,14.388290399999999,9.4175649Q12.8494525,8.39167303,11,8.39167303Q9.1505477,8.39167297,7.61170989,9.4175649Q7.53979602,9.4655074,7.48170316,9.529502Q7.42361033,9.5934966,7.38282782,9.6696994Q7.34204531,9.745902300000001,7.32102263,9.8297362Q7.30000007,9.9135703,7.30000001,10ZM8.69999999,16.8360968Q9.7827196,16.391674000000002,11.0000005,16.391674000000002Q12.2172813,16.391674000000002,13.3000002,16.836095800000002L13.3000002,10.3906159Q12.2406726,9.7916731,11,9.7916731Q9.7593274,9.7916731,8.69999999,10.3906157L8.69999999,16.8360968Z" fill-rule="evenodd" fill="#0047FF" fill-opacity="1"/><path d="M13.30000001,10L13.30000001,18Q13.29999995,18.211944000000003,13.41756475,18.388289999999998Q13.45580804,18.445653999999998,13.50450778,18.494456Q13.55320752,18.543258,13.61049229,18.581621Q13.66777706,18.619984000000002,13.73144543,18.646435Q13.7951138,18.672884,13.86271901,18.686405999999998Q13.930324227,18.699925999999998,13.99926826358,18.699999Q14.068212301,18.700071,14.13584569,18.686692Q14.20347907,18.673312,14.26720268,18.646996Q14.3309263,18.620677999999998,14.3882913,18.582436Q15.5744334,17.7916737,17.0000005,17.7916737Q18.4255657,17.7916737,19.6117096,18.582436Q19.7880573,18.700001,20,18.700001Q20.068944000000002,18.700001,20.1365628,18.68655Q20.2041821,18.673099999999998,20.2678781,18.646715Q20.331574,18.620331,20.3888988,18.582027Q20.4462233,18.543723999999997,20.4949741,18.494974Q20.543725000000002,18.446222,20.5820279,18.388897999999998Q20.620330799999998,18.331573,20.6467147,18.267878Q20.6730986,18.204182,20.6865487,18.136561999999998Q20.6999993,18.068944000000002,20.6999998,18L20.6999998,10Q20.6999998,9.9135703,20.678977,9.8297362Q20.6579542,9.745902300000001,20.6171718,9.6696995Q20.5763893,9.5934967,20.5182962,9.529502Q20.4602041,9.4655074,20.3882904,9.4175649Q18.849452499999998,8.39167303,17,8.39167303Q15.1505477,8.39167297,13.61170989,9.4175649Q13.53979602,9.4655074,13.48170316,9.529502Q13.42361033,9.5934966,13.38282782,9.6696994Q13.34204531,9.745902300000001,13.32102263,9.8297362Q13.30000007,9.9135703,13.30000001,10ZM14.69999999,16.8360968Q15.7827196,16.391674000000002,17.0000005,16.391674000000002Q18.2172813,16.391674000000002,19.3000002,16.836095800000002L19.3000002,10.3906159Q18.2406726,9.7916731,17,9.7916731Q15.7593274,9.7916731,14.69999999,10.3906157L14.69999999,16.8360968Z" fill-rule="evenodd" fill="#0047FF" fill-opacity="1"/><g><path d="M17.8572511375,11.7100834225L17.8112540375,11.6827918925Q17.5390920375,11.5213096725,17.2361978375,11.4767437625Q17.1031845375,11.4571730525,16.9642450375,11.4601489325Q16.8621596375,11.4623354925,16.7637915575,11.4765457825Q16.4358857275,11.5239152325,16.1492911575,11.7048920425Q16.0842417175,11.7584199925,15.9999999975,11.7584199925Q15.9532649175,11.7584199325,15.9100873575,11.7405351425Q15.8669098075,11.7226504125,15.8338631395,11.6896038025Q15.8008164575,11.6565570825,15.7829317305,11.6133794825Q15.76504699886,11.5702019325,15.76504699886,11.5234669425Q15.76504699886,11.4561162625,15.8007279965,11.3989937325Q15.8364089955,11.3418712325,15.8969336475,11.3123266425Q16.2218150475,11.1062839825,16.5878130775,11.0332197995Q16.7661514375,10.9976181197,16.9542520375,10.99358925223Q17.1896528375,10.9885472744,17.4118956375,11.0335625895Q17.7454586375,11.1011258025,18.0493805375,11.2814523325L18.0953791375,11.3087444325Q18.1590330375,11.3370193225,18.196992837499998,11.3954175125Q18.2349529375,11.4538156425,18.2349529375,11.5234669425Q18.2349529375,11.5702019325,18.2170682375,11.6133794825Q18.1991834375,11.6565570825,18.1661367375,11.6896038025Q18.1330900375,11.7226504125,18.0899124375,11.7405352025Q18.0467348375,11.7584199325,18.0000000375,11.7584199925Q17.9204418375,11.7584199925,17.8572511375,11.7100834225Z" fill-rule="evenodd" fill="#0047FF" fill-opacity="1"/></g><g><path d="M17.8572511375,13.5108646725L17.8112540375,13.4835731425Q17.5390920375,13.3220909225,17.2361978375,13.2775250125Q17.1031845375,13.2579543025,16.9642450375,13.2609301825Q16.8621596375,13.2631167425,16.7637915575,13.2773270325Q16.4358857275,13.3246964825,16.1492911575,13.5056732925Q16.0842417175,13.5592012425,15.9999999975,13.5592012425Q15.9532649175,13.5592011825,15.9100873575,13.5413163925Q15.8669098075,13.5234316625,15.8338631395,13.4903850525Q15.8008164575,13.4573383325,15.7829317305,13.4141607325Q15.76504699886,13.3709831825,15.76504699886,13.3242481925Q15.76504699886,13.2568975125,15.8007279965,13.1997749825Q15.8364089955,13.1426524825,15.8969336475,13.1131078925Q16.2218150475,12.9070652325,16.5878130775,12.8340010495Q16.7661514375,12.7983993697,16.9542520375,12.79437050223Q17.1896528375,12.7893285244,17.4118956375,12.8343438395Q17.7454586375,12.9019070525,18.0493805375,13.0822335825L18.0953791375,13.1095256825Q18.1590330375,13.1378005725,18.196992837499998,13.1961987625Q18.2349529375,13.2545968925,18.2349529375,13.3242481925Q18.2349529375,13.3709831825,18.2170682375,13.4141607325Q18.1991834375,13.4573383325,18.1661367375,13.4903850525Q18.1330900375,13.5234316625,18.0899124375,13.5413164525Q18.0467348375,13.5592011825,18.0000000375,13.5592012425Q17.9204418375,13.5592012425,17.8572511375,13.5108646725Z" fill-rule="evenodd" fill="#0047FF" fill-opacity="1"/></g><g><path d="M17.8572511375,15.31066936L17.8112540375,15.28337783Q17.5390920375,15.12189561,17.2361978375,15.0773297Q17.1031845375,15.05775899,16.9642450375,15.06073487Q16.8621596375,15.06292143,16.7637915575,15.07713172Q16.4358857275,15.12450117,16.1492911575,15.30547798Q16.0842417175,15.35900593,15.9999999975,15.35900593Q15.9532649175,15.35900587,15.9100873575,15.34112108Q15.8669098075,15.32323635,15.8338631395,15.29018974Q15.8008164575,15.25714302,15.7829317305,15.21396542Q15.76504699886,15.17078787,15.76504699886,15.12405288Q15.76504699886,15.0567022,15.8007279965,14.99957967Q15.8364089955,14.94245717,15.8969336475,14.91291258Q16.2218150475,14.70686992,16.5878130775,14.633805737Q16.7661514375,14.5982040572,16.9542520375,14.59417518973Q17.1896528375,14.5891332119,17.4118956375,14.634148527Q17.7454586375,14.70171174,18.0493805375,14.88203827L18.0953791375,14.90933037Q18.1590330375,14.93760526,18.196992837499998,14.99600345Q18.2349529375,15.05440158,18.2349529375,15.12405288Q18.2349529375,15.17078787,18.2170682375,15.21396542Q18.1991834375,15.25714302,18.1661367375,15.29018974Q18.1330900375,15.32323635,18.0899124375,15.34112114Q18.0467348375,15.35900587,18.0000000375,15.35900593Q17.9204418375,15.35900593,17.8572511375,15.31066936Z" fill-rule="evenodd" fill="#0047FF" fill-opacity="1"/></g></g></svg>