<svg xmlns="http://www.w3.org/2000/svg" xmlns:xlink="http://www.w3.org/1999/xlink" fill="none" version="1.1" width="340" height="276" viewBox="0 0 400 336"><defs><filter id="master_svg0_15_00068" filterUnits="objectBoundingBox" color-interpolation-filters="sRGB" x="-0.11764705882352941" y="-0.10869565217391304" width="1.2352941176470589" height="1.289855072463768"><feFlood flood-opacity="0" result="BackgroundImageFix"/><feColorMatrix in="SourceAlpha" type="matrix" values="0 0 0 0 0 0 0 0 0 0 0 0 0 0 0 0 0 0 127 0"/><feOffset dy="10" dx="0"/><feGaussianBlur stdDeviation="10"/><feColorMatrix type="matrix" values="0 0 0 0 0.7446419596672058 0 0 0 0 0.776922881603241 0 0 0 0 0.8737655878067017 0 0 0 0.30000001192092896 0"/><feBlend mode="normal" in2="BackgroundImageFix" result="effect1_dropShadow"/><feBlend mode="normal" in="SourceGraphic" in2="effect1_dropShadow" result="shape"/></filter><filter id="master_svg1_15_00068" filterUnits="objectBoundingBox" color-interpolation-filters="sRGB" x="-0.11764705882352941" y="-0.10869565217391304" width="1.2352941176470589" height="1.289855072463768"><feFlood flood-opacity="0" result="BackgroundImageFix"/><feColorMatrix in="SourceAlpha" type="matrix" values="0 0 0 0 0 0 0 0 0 0 0 0 0 0 0 0 0 0 127 0"/><feOffset dy="10" dx="0"/><feGaussianBlur stdDeviation="10"/><feColorMatrix type="matrix" values="0 0 0 0 0.7446419596672058 0 0 0 0 0.776922881603241 0 0 0 0 0.8737655878067017 0 0 0 0.30000001192092896 0"/><feBlend mode="normal" in2="BackgroundImageFix" result="effect1_dropShadow"/><feBlend mode="normal" in="SourceGraphic" in2="effect1_dropShadow" result="shape"/></filter><mask id="master_svg2_15_00068" style="mask-type:luminance" maskUnits="userSpaceOnUse" x="30" y="20" width="340" height="276"><path d="M30 38C30 28.058874503045722 38.05887450304572 20 48 20L352 20C361.94112549695427 20 370 28.058874503045722 370 38L370 278C370 287.94112549695427 361.94112549695427 296 352 296L48 296C38.05887450304572 296 30 287.94112549695427 30 278Z" fill="#FFFFFF" fill-opacity="1" filter="url(#master_svg1_15_00068)"/></mask></defs><g mask="url(#master_svg2_15_00068)"><g style="opacity:0.5;" filter="url(#master_svg0_15_00068)"><path d="M30 38C30 28.058874503045722 38.05887450304572 20 48 20L352 20C361.94112549695427 20 370 28.058874503045722 370 38L370 278C370 287.94112549695427 361.94112549695427 296 352 296L48 296C38.05887450304572 296 30 287.94112549695427 30 278Z" fill="#FFFFFF" fill-opacity="1"/><path d="M30.5 38.5C30.5 28.558874503045722 38.55887450304572 20.5 48.5 20.5L351.5 20.5C361.44112549695427 20.5 369.5 28.558874503045722 369.5 38.5L369.5 277.5C369.5 287.44112549695427 361.44112549695427 295.5 351.5 295.5L48.5 295.5C38.55887450304572 295.5 30.5 287.44112549695427 30.5 277.5Z" fill-opacity="0" stroke-opacity="0.5" stroke="#FFFFFF" fill="none" stroke-width="1"/></g></g></svg>