<svg xmlns="http://www.w3.org/2000/svg" xmlns:xlink="http://www.w3.org/1999/xlink" fill="none" version="1.1" width="16" height="16" viewBox="0 0 16 16"><defs><clipPath id="master_svg0_32_14907"><rect x="0" y="0" width="16" height="16" rx="0"/></clipPath></defs><g clip-path="url(#master_svg0_32_14907)"><g><path d="M14.666666373069763,4.6666667C14.666666373069763,3.1939074,13.472759373069763,2,12.000000373069764,2L4.000000073069764,2C2.5272407730697632,2,1.3333333730697632,3.1939074,1.3333333730697632,4.6666667L1.3333333730697632,10L1.3366667064697633,10.1333332C1.4077134210697633,11.5524902,2.5790657730697633,12.666668,4.000000073069764,12.666667L4.666666673069763,12.666667L4.666666673069763,14L4.6706667730697635,14.076C4.696596973069763,14.30108,4.835066673069763,14.497584,5.038305373069763,14.597721C5.241544173069763,14.697858,5.481729373069763,14.687919,5.6759999730697634,14.571333L8.850666873069763,12.666667L12.000000373069764,12.666667C13.472759373069763,12.666667,14.666666373069763,11.4727592,14.666666373069763,10L14.666666373069763,4.6666667ZM10.666341173069764,5.3334961L5.333007973069764,5.3334961C4.964818073069763,5.3334961,4.666341173069763,5.631973,4.666341173069763,6.0001626C4.666341173069763,6.3683529,4.964818073069763,6.6668296,5.333007973069764,6.6668296L10.666341173069764,6.6668296C11.034530973069764,6.6668296,11.333007173069763,6.3683529,11.333007173069763,6.0001626C11.333007173069763,5.631973,11.034530973069764,5.3334961,10.666341173069764,5.3334961ZM9.333007673069762,8L5.333007973069764,8C4.964818073069763,8,4.666341173069763,8.2984767,4.666341173069763,8.6666665C4.666341173069763,9.0348568,4.964818073069763,9.3333335,5.333007973069764,9.3333335L9.333007673069762,9.3333335C9.701197973069764,9.3333335,9.999675173069763,9.0348568,9.999675173069763,8.6666665C9.999675173069763,8.2984767,9.701197973069764,8,9.333007673069762,8Z" fill-rule="evenodd" fill="#191C1E" fill-opacity="1"/></g></g></svg>