<svg xmlns="http://www.w3.org/2000/svg" xmlns:xlink="http://www.w3.org/1999/xlink" fill="none" version="1.1" width="7" height="3" viewBox="0 0 8 4"><path d="M1.11031437,1.3256244700000002C2.9989831,0.7860048399999999,5.0010166,0.7860048399999999,6.8896856,1.3256244700000002C7.2509384,1.4288395,7.5,1.7590281,7.5,2.1347365L7.5,2.3599451C7.5,2.9895802,6.9895802,3.5,6.3599453,3.5L1.6400549,3.5C1.0104199600000001,3.5,0.5,2.9895802,0.5,2.3599451L0.5,2.1347365C0.5,1.7590281,0.74906164,1.4288395,1.11031437,1.3256244700000002" fill-rule="evenodd" fill="#FFFFFF" fill-opacity="1"/><path d="M0,2.1347365L0,2.3599451Q-5.999999996841865e-8,3.039278,0.480360953,3.5196393Q0.9607217299999999,4,1.6400549,4L6.3599453,4Q7.0392785,4,7.519639,3.5196393Q8,3.039278,8,2.3599451L8,2.1347365Q8,1.6855252,7.7294869,1.32689762Q7.4589734,0.96827018,7.0270457,0.84486246Q4,-0.020007670000000033,0.9729538,0.84486246Q0.541026182,0.96827033,0.27051305999999997,1.3268978Q0,1.6855251,0,2.1347365ZM1.18746769,2.8125322Q0.99999991,2.6250644,0.99999991,2.3599452000000003L1,2.1347365Q1,1.8771507,1.24767488,1.8063864Q3.9999998,1.02000803,6.7523246,1.8063864Q6.9999995,1.8771507,6.9999995,2.1347365L6.9999995,2.3599451Q6.9999995,2.6250646,6.8125319,2.8125322Q6.6250639,3.0000002,6.3599453,3.0000002L1.6400549,3.0000002Q1.37493563,3.0000002,1.18746769,2.8125322Z" fill-rule="evenodd" fill="#FFFFFF" fill-opacity="1"/></svg>