<svg xmlns="http://www.w3.org/2000/svg" xmlns:xlink="http://www.w3.org/1999/xlink" fill="none" version="1.1" width="64" height="18" viewBox="0 0 64 18"><path d="M0,9C0,11.795652,0.0065872669,13.236269,0.47150934,14.335469C1.0787425,15.771131,2.2288694,16.921257,3.6645308,17.52849C4.7637305,17.993412,6.2043476,18,9,18L55,18C57.795654,18,59.236267,17.993412,60.335468,17.52849C61.77113,16.921257,62.921257,15.771131,63.528492,14.335469C63.993416,13.23627,64,11.795652,64,9C64,6.2043476,63.993416,4.76373,63.528492,3.6645308C62.921257,2.2288694,61.77113,1.0787425,60.335468,0.47150934C59.236267,0.0065872669,57.795654,0,55,0L9,0C6.2043476,0,4.7637305,0.0065872669,3.6645308,0.47150934C2.2288694,1.0787425,1.0787425,2.2288694,0.47150934,3.6645308C0.0065872669,4.7637305,0,6.2043476,0,9Z" fill="#FFFFFF" fill-opacity="1" style="opacity:0.800000011920929;"/></svg>