<svg xmlns="http://www.w3.org/2000/svg" xmlns:xlink="http://www.w3.org/1999/xlink" fill="none" version="1.1" width="16" height="16" viewBox="0 0 16 16"><defs><clipPath id="master_svg0_0_17315"><rect x="-0.6000000238418579" y="15.399999976158142" width="17.200000047683716" height="17.200000047683716" rx="0"/></clipPath></defs><g transform="matrix(0,-1,1,0,-16,16)" clip-path="url(#master_svg0_0_17315)"><g transform="matrix(0,1,-1,0,29.5,10.5)"><path d="M13.924264,24.424264L17.924264,20.42426407Q17.9660501,20.3824777,17.998880399999997,20.33334211Q18.0317116,20.28420654,18.0543261,20.22961004Q18.0769405,20.17501353,18.088469500000002,20.11705418Q18.099998499999998,20.059094839,18.099998499999998,20Q18.099998499999998,19.940905161,18.0884705,19.88294582Q18.0769405,19.82498647,18.054327,19.77038996Q18.0317116,19.71579346,17.9988813,19.66665787Q17.9660501,19.6175223,17.924264,19.57573593Q17.8398724,19.49134457,17.729609500000002,19.44567227Q17.6193466,19.39999998,17.4999995,19.39999998Q17.380652,19.39999998,17.2703896,19.44567227Q17.160127199999998,19.49134457,17.075736,19.57573593L13.5,23.1514721L9.92426407,19.57573593Q9.8824777,19.53394958,9.83334211,19.50111824Q9.78420654,19.46828693,9.72961004,19.44567233Q9.67501353,19.42305773,9.61705418,19.41152894Q9.559094839,19.4000001,9.5,19.40000004Q9.440905161,19.4000001,9.38294582,19.41152889Q9.32498647,19.42305773,9.27038996,19.44567233Q9.21579346,19.46828693,9.16665787,19.50111827Q9.1175223,19.53394958,9.07573593,19.57573593Q9.03394958,19.6175223,9.00111824,19.66665789Q8.96828693,19.71579346,8.94567233,19.77038996Q8.92305773,19.82498647,8.91152894,19.88294582Q8.9000001,19.940905161,8.90000004,20Q8.9000001,20.059094839,8.91152889,20.11705418Q8.92305773,20.17501353,8.94567233,20.22961004Q8.96828693,20.28420654,9.00111827,20.33334213Q9.03394958,20.3824777,9.07573593,20.42426407L13.075736,24.424264Q13.1175222,24.4660501,13.1666579,24.4988813Q13.215793099999999,24.5317125,13.2703898,24.554327Q13.3249865,24.5769415,13.3829458,24.5884705Q13.4409051,24.5999994,13.5,24.5999994Q13.5590944,24.5999994,13.6170535,24.5884705Q13.675012599999999,24.5769415,13.729609499999999,24.554327Q13.7842064,24.5317125,13.8333421,24.4988813Q13.8824778,24.4660501,13.924264,24.424264Z" fill-rule="evenodd" fill="#99A0AC" fill-opacity="1"/></g></g></svg>