<svg xmlns="http://www.w3.org/2000/svg" xmlns:xlink="http://www.w3.org/1999/xlink" fill="none" version="1.1" width="14.04" height="7.29" viewBox="0 0 14.042963027954102 7.288552284240723"><defs><clipPath id="master_svg0_1_20197"><rect x="-0.5" y="-0.5" width="15.042963027954102" height="8.288552284240723" rx="0"/></clipPath><mask id="master_svg1_1_20199" style="mask-type:alpha" maskUnits="userSpaceOnUse" x="0" y="0" width="14.042963027954102" height="7.288552284240723"><path d="M7.6714177,6.8163323C5.8565259,4.1310019,7.8524156,1,12.863204,1.3015242C17.873991,1.6030483,5.4901829,-2.0748277e-13,2.4526169,-2.0748277e-13C-0.58494931,-2.0748277e-13,0.056572303,1.9174432,0.056572303,5.2311516C0.056572303,8.5448599,7.7110162,6.8749228,7.6714177,6.8163323Z" fill-rule="evenodd" fill="#FFFFFF" fill-opacity="1"/></mask></defs><g clip-path="url(#master_svg0_1_20197)"><g mask="url(#master_svg1_1_20199)"><path d="M2.021466195,2.7329612C5.099951475,1.61351192,8.474267975,1.61351192,11.552753375,2.7329613C11.993628375,2.8932798,12.287109375,3.3122818,12.287109375,3.7814023L12.287109375,4.2357373C12.287109375,5.2101126,11.497222375,6,10.522846175,6L3.0513720749999997,6C2.076996625,6,1.2871093750001645,5.2101126,1.2871093750003677,4.2357373L1.2871093750004625,3.7814021C1.2871093750005602,3.3122818,1.5805898649999999,2.8932798,2.021466195,2.7329612" fill-rule="evenodd" fill="#FFFFFF" fill-opacity="1"/><path d="M0.787109375,3.7814023L0.787109375,4.2357376Q0.787109405,5.173625,1.450296475,5.8368125Q2.113483845,6.5,3.051372175,6.5L10.522846175,6.5Q11.460735375,6.5,12.123921375,5.8368134Q12.787109375,5.1736255,12.787109375,4.2357376L12.787109375,3.7814026Q12.787109375,3.2718735,12.494794375,2.8545328000000003Q12.202478375,2.4371934,11.723626375,2.2630649Q9.331976875,1.3933742,6.787109875,1.3933742Q4.242242774999999,1.39337417,1.850594405,2.2630641000000002Q1.37174125,2.4371928,1.079425375,2.8545324Q0.787109375,3.271872,0.787109375,3.7814023ZM2.157403405,5.1297059Q1.787109435,4.7594118000000005,1.787109375,4.2357368L1.787109375,3.7814023Q1.787109375,3.3502138,2.192338105,3.2028575Q4.418417475,2.3933742000000002,6.787109875,2.3933742000000002Q9.155802275,2.3933742000000002,11.381883375,3.2028582Q11.787108375,3.3502133,11.787108375,3.7814026L11.787108375,4.2357376Q11.787108375,4.7594128,11.416815375,5.1297064Q11.046522175,5.5000005,10.522846175,5.5000005L3.051372175,5.5000005Q2.527697575,5.5000005,2.157403405,5.1297059Z" fill-rule="evenodd" fill="#FFFFFF" fill-opacity="1"/></g></g></svg>