<svg xmlns="http://www.w3.org/2000/svg" xmlns:xlink="http://www.w3.org/1999/xlink" fill="none" version="1.1" width="30" height="30" viewBox="0 0 48 48"><defs><filter id="master_svg0_0_3353" filterUnits="objectBoundingBox" color-interpolation-filters="sRGB" x="-0.4" y="-0.3333333333333333" width="1.8" height="1.8"><feFlood flood-opacity="0" result="BackgroundImageFix"/><feColorMatrix in="SourceAlpha" type="matrix" values="0 0 0 0 0 0 0 0 0 0 0 0 0 0 0 0 0 0 127 0"/><feOffset dy="2" dx="0"/><feGaussianBlur stdDeviation="3"/><feColorMatrix type="matrix" values="0 0 0 0 0.839786946773529 0 0 0 0 0.8612616658210754 0 0 0 0 0.8827364444732666 0 0 0 0.7325727343559265 0"/><feBlend mode="normal" in2="BackgroundImageFix" result="effect1_dropShadow"/><feBlend mode="normal" in="SourceGraphic" in2="effect1_dropShadow" result="shape"/></filter></defs><path d="M9 11C9 8.790861000676827 10.790861000676827 7 13 7L35 7C37.20913899932317 7 39 8.790861000676827 39 11L39 33C39 35.20913899932317 37.20913899932317 37 35 37L13 37C10.790861000676827 37 9 35.20913899932317 9 33Z" fill="#FFFFFF" fill-opacity="1" filter="url(#master_svg0_0_3353)"/><path d="M24,20.9142134L27.2928934,24.2071066Q27.3625374,24.2767506,27.4444294,24.3314691Q27.5263214,24.386188,27.6173153,24.4238791Q27.7083097,24.4615698,27.8049088,24.4807844Q27.9015074,24.499999,27.9999995,24.4999995Q28.0984907,24.499999,28.1950903,24.4807844Q28.2916889,24.4615698,28.382682799999998,24.4238791Q28.4736767,24.386188,28.5555706,24.3314691Q28.6374626,24.2767506,28.7071066,24.2071066Q28.7767506,24.1374626,28.8314686,24.0555696Q28.8861876,23.9736767,28.9238787,23.8826828Q28.9615698,23.791688399999998,28.980785400000002,23.6950893Q29,23.5984907,29,23.4999995Q29,23.4015079,28.980785400000002,23.304909Q28.9615698,23.2083101,28.9238787,23.117316Q28.8861876,23.0263219,28.8314686,22.9444294Q28.7767506,22.8625369,28.7071066,22.7928932L24.7071066,18.79289323Q24.566454399999998,18.65224099,24.3826833,18.576120500000002Q24.1989126,18.50000012,24,18.50000006Q23.8010876,18.50000012,23.6173165,18.57612056Q23.4335456,18.65224099,23.2928932,18.79289323L19.29289323,22.7928932Q19.15224099,22.9335456,19.07612056,23.1173165Q19.00000012,23.3010874,19.00000006,23.4999995Q19,23.6989117,19.07612044,23.8826828Q19.15224087,24.0664539,19.29289323,24.2071066Q19.36253721,24.2767506,19.44442981,24.3314691Q19.52632242,24.386188,19.6173166,24.4238791Q19.70831078,24.4615698,19.80490969,24.4807844Q19.9015086,24.499999,20,24.4999995Q20.0984914,24.499999,20.19509031,24.4807844Q20.29168922,24.4615698,20.3826834,24.4238791Q20.47367758,24.386188,20.55557019,24.3314691Q20.63746279,24.2767506,20.70710677,24.2071066L24,20.9142134Z" fill-rule="evenodd" fill="#191C1E" fill-opacity="1"/></svg>