<svg xmlns="http://www.w3.org/2000/svg" xmlns:xlink="http://www.w3.org/1999/xlink" fill="none" version="1.1" width="30" height="30" viewBox="0 0 48 48"><defs><filter id="master_svg0_0_3360" filterUnits="objectBoundingBox" color-interpolation-filters="sRGB" x="-0.4" y="-0.3333333333333333" width="1.8" height="1.8"><feFlood flood-opacity="0" result="BackgroundImageFix"/><feColorMatrix in="SourceAlpha" type="matrix" values="0 0 0 0 0 0 0 0 0 0 0 0 0 0 0 0 0 0 127 0"/><feOffset dy="2" dx="0"/><feGaussianBlur stdDeviation="3"/><feColorMatrix type="matrix" values="0 0 0 0 0.6086280345916748 0 0 0 0 0.6582736372947693 0 0 0 0 0.7079192399978638 0 0 0 0.7325727343559265 0"/><feBlend mode="normal" in2="BackgroundImageFix" result="effect1_dropShadow"/><feBlend mode="normal" in="SourceGraphic" in2="effect1_dropShadow" result="shape"/></filter></defs><g filter="url(#master_svg0_0_3360)"><path d="M9 11C9 8.790861000676827 10.790861000676827 7 13 7L35 7C37.20913899932317 7 39 8.790861000676827 39 11L39 33C39 35.20913899932317 37.20913899932317 37 35 37L13 37C10.790861000676827 37 9 35.20913899932317 9 33Z" fill="#FFFFFF" fill-opacity="1"/><path d="M9.5 11.5C9.5 9.290861000676827 11.290861000676827 7.5 13.5 7.5L34.5 7.5C36.70913899932317 7.5 38.5 9.290861000676827 38.5 11.5L38.5 32.5C38.5 34.70913899932317 36.70913899932317 36.5 34.5 36.5L13.5 36.5C11.290861000676827 36.5 9.5 34.70913899932317 9.5 32.5Z" fill-opacity="0" stroke-opacity="1" stroke="#1947FF" fill="none" stroke-width="1"/></g><g transform="matrix(0,1,-1,0,44.5,-8.5)"><path d="M30.5,19.4142134L33.7928934,22.7071066Q33.8625374,22.7767506,33.9444294,22.8314691Q34.0263214,22.886188,34.1173153,22.9238791Q34.2083097,22.9615698,34.3049088,22.9807844Q34.4015074,22.999999,34.4999995,22.9999995Q34.5984907,22.999999,34.695090300000004,22.9807844Q34.7916889,22.9615698,34.8826828,22.9238791Q34.9736767,22.886188,35.055570599999996,22.8314691Q35.1374626,22.7767506,35.2071066,22.7071066Q35.2767506,22.6374626,35.3314686,22.5555696Q35.3861876,22.4736767,35.4238787,22.3826828Q35.4615698,22.291688399999998,35.4807854,22.1950893Q35.5,22.0984907,35.5,21.9999995Q35.5,21.9015079,35.4807854,21.804909Q35.4615698,21.7083101,35.4238787,21.617316Q35.3861876,21.5263219,35.3314686,21.4444294Q35.2767506,21.3625369,35.2071066,21.2928932L31.2071066,17.29289323Q31.066454399999998,17.15224099,30.8826833,17.076120500000002Q30.6989126,17.00000012,30.5,17.00000006Q30.3010876,17.00000012,30.1173165,17.07612056Q29.9335456,17.15224099,29.7928932,17.29289323L25.79289323,21.2928932Q25.65224099,21.4335456,25.57612056,21.6173165Q25.50000012,21.8010874,25.50000006,21.9999995Q25.5,22.1989117,25.57612044,22.3826828Q25.65224087,22.5664539,25.79289323,22.7071066Q25.86253721,22.7767506,25.94442981,22.8314691Q26.02632242,22.886188,26.1173166,22.9238791Q26.20831078,22.9615698,26.30490969,22.9807844Q26.4015086,22.999999,26.5,22.9999995Q26.5984914,22.999999,26.69509031,22.9807844Q26.79168922,22.9615698,26.8826834,22.9238791Q26.97367758,22.886188,27.05557019,22.8314691Q27.13746279,22.7767506,27.20710677,22.7071066L30.5,19.4142134Z" fill-rule="evenodd" fill="#191C1E" fill-opacity="1"/></g></svg>