<svg xmlns="http://www.w3.org/2000/svg" xmlns:xlink="http://www.w3.org/1999/xlink" fill="none" version="1.1" width="16" height="16" viewBox="0 0 16 16"><defs><clipPath id="master_svg0_0_18799"><rect x="-0.6000000238418579" y="-0.6000000238418579" width="17.200000047683716" height="17.200000047683716" rx="0"/></clipPath></defs><g clip-path="url(#master_svg0_0_18799)"><path d="M8.424264,10.424264L12.424264,6.4242640699999995Q12.4660501,6.3824777,12.4988804,6.33334211Q12.5317116,6.28420654,12.5543261,6.22961004Q12.5769405,6.17501353,12.5884695,6.11705418Q12.5999985,6.059094839,12.5999985,6Q12.5999985,5.940905161,12.5884705,5.88294582Q12.5769405,5.82498647,12.554327,5.77038996Q12.5317116,5.71579346,12.4988813,5.66665787Q12.4660501,5.6175223,12.424264,5.5757359300000005Q12.3398724,5.49134457,12.2296095,5.44567227Q12.1193466,5.3999999800000005,11.999999500000001,5.3999999800000005Q11.880652000000001,5.3999999800000005,11.7703896,5.44567227Q11.6601272,5.49134457,11.575736,5.5757359300000005L8,9.1514721L4.4242640699999995,5.5757359300000005Q4.3824777,5.53394958,4.33334211,5.50111824Q4.28420654,5.46828693,4.22961004,5.44567233Q4.17501353,5.42305773,4.11705418,5.41152894Q4.059094839,5.4000001,4,5.40000004Q3.940905161,5.4000001,3.88294582,5.41152889Q3.82498647,5.42305773,3.77038996,5.44567233Q3.71579346,5.46828693,3.66665787,5.50111827Q3.6175223,5.53394958,3.57573593,5.5757359300000005Q3.53394958,5.6175223,3.50111824,5.66665789Q3.46828693,5.71579346,3.44567233,5.77038996Q3.42305773,5.82498647,3.41152894,5.88294582Q3.4000000999999997,5.940905161,3.40000004,6Q3.4000000999999997,6.059094839,3.41152889,6.11705418Q3.42305773,6.17501353,3.44567233,6.22961004Q3.46828693,6.28420654,3.50111827,6.33334213Q3.53394958,6.3824777,3.57573593,6.4242640699999995L7.575736,10.424264Q7.6175222,10.4660501,7.666657900000001,10.4988813Q7.7157931,10.531712500000001,7.7703898,10.554327Q7.8249865,10.5769415,7.8829458,10.5884705Q7.9409051,10.5999994,8,10.5999994Q8.0590944,10.5999994,8.1170535,10.5884705Q8.175012599999999,10.5769415,8.229609499999999,10.554327Q8.2842064,10.531712500000001,8.3333421,10.4988813Q8.3824778,10.4660501,8.424264,10.424264Z" fill-rule="evenodd" fill="#1947FF" fill-opacity="1"/></g></svg>